<svg width="400" height="300" viewBox="0 0 400 300" fill="none" xmlns="http://www.w3.org/2000/svg">
  <rect width="400" height="300" fill="#0F172A"/>
  <rect x="20" y="20" width="360" height="260" rx="8" fill="#1E293B"/>
  <rect x="40" y="40" width="320" height="40" rx="4" fill="#334155"/>
  <rect x="50" y="50" width="120" height="20" rx="2" fill="#64748B"/>
  <rect x="280" y="50" width="70" height="20" rx="2" fill="#0EA5E9"/>
  
  <circle cx="100" cy="150" r="30" fill="#334155" opacity="0.3"/>
  <circle cx="300" cy="150" r="25" fill="#334155" opacity="0.3"/>
  <circle cx="200" cy="120" r="20" fill="#334155" opacity="0.3"/>
  
  <rect x="60" y="100" width="90" height="120" rx="6" fill="#334155"/>
  <rect x="155" y="100" width="90" height="120" rx="6" fill="#334155"/>
  <rect x="250" y="100" width="90" height="120" rx="6" fill="#334155"/>
  
  <circle cx="105" cy="140" r="15" fill="#0EA5E9"/>
  <polygon points="100,135 100,145 110,140" fill="white"/>
  
  <rect x="170" y="120" width="60" height="40" rx="2" fill="#64748B"/>
  <rect x="175" y="125" width="50" height="8" rx="1" fill="#94A3B8"/>
  <rect x="175" y="140" width="30" height="8" rx="1" fill="#94A3B8"/>
  
  <rect x="265" y="120" width="60" height="60" rx="4" fill="#64748B"/>
  
  <text x="200" y="15" text-anchor="middle" fill="#F1F5F9" font-family="Arial, sans-serif" font-size="14" font-weight="bold">Sharfin App</text>
  <text x="200" y="280" text-anchor="middle" fill="#64748B" font-family="Arial, sans-serif" font-size="12">Islamic Finance Education</text>
</svg>

