<svg width="400" height="300" viewBox="0 0 400 300" fill="none" xmlns="http://www.w3.org/2000/svg">
  <rect width="400" height="300" fill="#FEF7ED"/>
  <rect x="20" y="20" width="360" height="260" rx="8" fill="#FFFFFF"/>
  <rect x="40" y="40" width="320" height="40" rx="4" fill="#F97316"/>
  <rect x="50" y="50" width="100" height="20" rx="2" fill="#FFFFFF"/>
  <rect x="280" y="50" width="70" height="20" rx="2" fill="#FFFFFF"/>
  
  <!-- Food sharing interface -->
  <rect x="60" y="100" width="280" height="60" rx="6" fill="#FFF7ED"/>
  <circle cx="90" cy="130" r="20" fill="#FB923C"/>
  <rect x="120" y="115" width="150" height="12" rx="2" fill="#F97316"/>
  <rect x="120" y="135" width="100" height="10" rx="2" fill="#FB923C"/>
  
  <rect x="60" y="180" width="280" height="60" rx="6" fill="#FFF7ED"/>
  <circle cx="90" cy="210" r="20" fill="#FB923C"/>
  <rect x="120" y="195" width="120" height="12" rx="2" fill="#F97316"/>
  <rect x="120" y="215" width="80" height="10" rx="2" fill="#FB923C"/>
  
  <!-- Action buttons -->
  <rect x="290" y="115" width="50" height="25" rx="4" fill="#22C55E"/>
  <rect x="290" y="195" width="50" height="25" rx="4" fill="#EF4444"/>
  
  <!-- Location indicator -->
  <circle cx="350" cy="130" r="8" fill="#3B82F6"/>
  <circle cx="350" cy="210" r="8" fill="#3B82F6"/>
  
  <text x="200" y="15" text-anchor="middle" fill="#F97316" font-family="Arial, sans-serif" font-size="14" font-weight="bold">Refoodbish</text>
  <text x="200" y="280" text-anchor="middle" fill="#FB923C" font-family="Arial, sans-serif" font-size="12">Sharing Surplus Food</text>
</svg>
