<svg width="400" height="300" viewBox="0 0 400 300" fill="none" xmlns="http://www.w3.org/2000/svg">
  <rect width="400" height="300" fill="#1F2937"/>
  <rect x="20" y="20" width="360" height="260" rx="8" fill="#374151"/>
  <rect x="40" y="40" width="320" height="40" rx="4" fill="#4B5563"/>
  <rect x="50" y="50" width="100" height="20" rx="2" fill="#6B7280"/>
  <rect x="280" y="50" width="70" height="20" rx="2" fill="#123458"/>
  
  <!-- Main content area -->
  <rect x="40" y="100" width="320" height="120" rx="4" fill="#4B5563"/>
  <rect x="60" y="120" width="80" height="80" rx="4" fill="#6B7280"/>
  <rect x="160" y="120" width="180" height="20" rx="2" fill="#9CA3AF"/>
  <rect x="160" y="150" width="140" height="15" rx="2" fill="#6B7280"/>
  <rect x="160" y="175" width="160" height="15" rx="2" fill="#6B7280"/>
  
  <!-- Bottom buttons -->
  <rect x="40" y="240" width="100" height="30" rx="4" fill="#123458"/>
  <rect x="160" y="240" width="100" height="30" rx="4" fill="#374151"/>
  <rect x="280" y="240" width="80" height="30" rx="4" fill="#6B7280"/>
  
  <text x="200" y="20" text-anchor="middle" fill="#F3F4F6" font-family="Arial, sans-serif" font-size="14" font-weight="bold">RFC Store App</text>
</svg>
