<svg width="100" height="100" viewBox="0 0 100 100" fill="none" xmlns="http://www.w3.org/2000/svg">
<rect width="100" height="100" fill="white"/>
<mask id="path-1-outside-1_33_58" maskUnits="userSpaceOnUse" x="8" y="31" width="81" height="37" fill="black">
<rect fill="white" x="8" y="31" width="81" height="37"/>
<path d="M12.4286 32.7143H15.8571V36.1429H12.4286V32.7143ZM9 32.7143H12.4286V36.1429H9V32.7143ZM9 36.1429H12.4286V39.5714H9V36.1429ZM9 39.5714H12.4286V43H9V39.5714ZM9 43H12.4286V46.4286H9V43ZM9 46.4286H12.4286V49.8571H9V46.4286ZM9 49.8571H12.4286V53.2857H9V49.8571ZM9 53.2857H12.4286V56.7143H9V53.2857ZM9 56.7143H12.4286V60.1429H9V56.7143ZM9 60.1429H12.4286V63.5714H9V60.1429ZM9 63.5714H12.4286V67H9V63.5714ZM12.4286 63.5714H15.8571V67H12.4286V63.5714ZM12.4286 60.1429H15.8571V63.5714H12.4286V60.1429ZM12.4286 56.7143H15.8571V60.1429H12.4286V56.7143ZM12.4286 53.2857H15.8571V56.7143H12.4286V53.2857ZM12.4286 49.8571H15.8571V53.2857H12.4286V49.8571ZM12.4286 46.4286H15.8571V49.8571H12.4286V46.4286ZM12.4286 43H15.8571V46.4286H12.4286V43ZM12.4286 39.5714H15.8571V43H12.4286V39.5714ZM12.4286 36.1429H15.8571V39.5714H12.4286V36.1429ZM15.8571 49.8571H19.2857V53.2857H15.8571V49.8571ZM19.2857 49.8571H22.7143V53.2857H19.2857V49.8571ZM19.2857 46.4286H22.7143V49.8571H19.2857V46.4286ZM15.8571 46.4286H19.2857V49.8571H15.8571V46.4286ZM19.2857 43H22.7143V46.4286H19.2857V43ZM22.7143 43H26.1429V46.4286H22.7143V43ZM22.7143 39.5714H26.1429V43H22.7143V39.5714ZM22.7143 36.1429H26.1429V39.5714H22.7143V36.1429ZM22.7143 32.7143H26.1429V36.1429H22.7143V32.7143ZM26.1429 32.7143H29.5714V36.1429H26.1429V32.7143ZM26.1429 36.1429H29.5714V39.5714H26.1429V36.1429ZM26.1429 39.5714H29.5714V43H26.1429V39.5714ZM19.2857 53.2857H22.7143V56.7143H19.2857V53.2857ZM22.7143 53.2857H26.1429V56.7143H22.7143V53.2857ZM22.7143 56.7143H26.1429V60.1429H22.7143V56.7143ZM22.7143 60.1429H26.1429V63.5714H22.7143V60.1429ZM22.7143 63.5714H26.1429V67H22.7143V63.5714ZM26.1429 63.5714H29.5714V67H26.1429V63.5714ZM26.1429 60.1429H29.5714V63.5714H26.1429V60.1429ZM26.1429 56.7143H29.5714V60.1429H26.1429V56.7143ZM26.1429 53.2857H29.5714V56.7143H26.1429V53.2857ZM22.7143 49.8571H26.1429V53.2857H22.7143V49.8571ZM39.8571 36.1429H43.2857V39.5714H39.8571V36.1429ZM43.2857 36.1429H46.7143V39.5714H43.2857V36.1429ZM43.2857 32.7143H46.7143V36.1429H43.2857V32.7143ZM46.7143 36.1429H50.1429V39.5714H46.7143V36.1429ZM46.7143 39.5714H50.1429V43H46.7143V39.5714ZM50.1429 39.5714H53.5714V43H50.1429V39.5714ZM43.2857 39.5714H46.7143V43H43.2857V39.5714ZM39.8571 39.5714H43.2857V43H39.8571V39.5714ZM36.4286 39.5714H39.8571V43H36.4286V39.5714ZM36.4286 43H39.8571V46.4286H36.4286V43ZM33 43H36.4286V46.4286H33V43ZM39.8571 43H43.2857V46.4286H39.8571V43ZM36.4286 46.4286H39.8571V49.8571H36.4286V46.4286ZM36.4286 49.8571H39.8571V53.2857H36.4286V49.8571ZM36.4286 53.2857H39.8571V56.7143H36.4286V53.2857ZM39.8571 53.2857H43.2857V56.7143H39.8571V53.2857ZM43.2857 53.2857H46.7143V56.7143H43.2857V53.2857ZM46.7143 53.2857H50.1429V56.7143H46.7143V53.2857ZM50.1429 53.2857H53.5714V56.7143H50.1429V53.2857ZM53.5714 53.2857H57V56.7143H53.5714V53.2857ZM53.5714 49.8571H57V53.2857H53.5714V49.8571ZM53.5714 46.4286H57V49.8571H53.5714V46.4286ZM53.5714 43H57V46.4286H53.5714V43ZM50.1429 43H53.5714V46.4286H50.1429V43ZM46.7143 43H50.1429V46.4286H46.7143V43ZM50.1429 46.4286H53.5714V49.8571H50.1429V46.4286ZM50.1429 49.8571H53.5714V53.2857H50.1429V49.8571ZM50.1429 56.7143H53.5714V60.1429H50.1429V56.7143ZM53.5714 56.7143H57V60.1429H53.5714V56.7143ZM53.5714 60.1429H57V63.5714H53.5714V60.1429ZM53.5714 63.5714H57V67H53.5714V63.5714ZM50.1429 63.5714H53.5714V67H50.1429V63.5714ZM50.1429 60.1429H53.5714V63.5714H50.1429V60.1429ZM46.7143 56.7143H50.1429V60.1429H46.7143V56.7143ZM43.2857 56.7143H46.7143V60.1429H43.2857V56.7143ZM39.8571 56.7143H43.2857V60.1429H39.8571V56.7143ZM36.4286 56.7143H39.8571V60.1429H36.4286V56.7143ZM36.4286 60.1429H39.8571V63.5714H36.4286V60.1429ZM36.4286 63.5714H39.8571V67H36.4286V63.5714ZM33 63.5714H36.4286V67H33V63.5714ZM33 60.1429H36.4286V63.5714H33V60.1429ZM33 56.7143H36.4286V60.1429H33V56.7143ZM33 53.2857H36.4286V56.7143H33V53.2857ZM33 49.8571H36.4286V53.2857H33V49.8571ZM33 46.4286H36.4286V49.8571H33V46.4286ZM60.4375 32.7143H63.8661V36.1429H60.4375V32.7143ZM63.8661 32.7143H67.2946V36.1429H63.8661V32.7143ZM63.8661 36.1429H67.2946V39.5714H63.8661V36.1429ZM63.8661 39.5714H67.2946V43H63.8661V39.5714ZM60.4375 39.5714H63.8661V43H60.4375V39.5714ZM60.4375 36.1429H63.8661V39.5714H60.4375V36.1429ZM60.4375 43H63.8661V46.4286H60.4375V43ZM60.4375 46.4286H63.8661V49.8571H60.4375V46.4286ZM63.8661 46.4286H67.2946V49.8571H63.8661V46.4286ZM63.8661 43H67.2946V46.4286H63.8661V43ZM63.8661 49.8571H67.2946V53.2857H63.8661V49.8571ZM67.2946 49.8571H70.7232V53.2857H67.2946V49.8571ZM67.2946 46.4286H70.7232V49.8571H67.2946V46.4286ZM67.2946 53.2857H70.7232V56.7143H67.2946V53.2857ZM70.7232 53.2857H74.1518V56.7143H70.7232V53.2857ZM70.7232 49.8571H74.1518V53.2857H70.7232V49.8571ZM74.1518 49.8571H77.5804V53.2857H74.1518V49.8571ZM74.1518 53.2857H77.5804V56.7143H74.1518V53.2857ZM77.5804 53.2857H81.0089V56.7143H77.5804V53.2857ZM77.5804 49.8571H81.0089V53.2857H77.5804V49.8571ZM77.5804 46.4286H81.0089V49.8571H77.5804V46.4286ZM81.0089 46.4286H84.4375V49.8571H81.0089V46.4286ZM81.0089 49.8571H84.4375V53.2857H81.0089V49.8571ZM81.0089 43H84.4375V46.4286H81.0089V43ZM81.0089 39.5714H84.4375V43H81.0089V39.5714ZM81.0089 36.1429H84.4375V39.5714H81.0089V36.1429ZM81.0089 32.7143H84.4375V36.1429H81.0089V32.7143ZM84.4375 32.7143H87.8661V36.1429H84.4375V32.7143ZM84.4375 36.1429H87.8661V39.5714H84.4375V36.1429ZM84.4375 39.5714H87.8661V43H84.4375V39.5714ZM84.4375 43H87.8661V46.4286H84.4375V43ZM84.4375 46.4286H87.8661V49.8571H84.4375V46.4286ZM70.7232 56.7143H74.1518V60.1429H70.7232V56.7143ZM70.7232 60.1429H74.1518V63.5714H70.7232V60.1429ZM70.7232 63.5714H74.1518V67H70.7232V63.5714ZM74.1518 63.5714H77.5804V67H74.1518V63.5714ZM74.1518 60.1429H77.5804V63.5714H74.1518V60.1429ZM74.1518 56.7143H77.5804V60.1429H74.1518V56.7143Z"/>
</mask>
<path d="M12.4286 32.7143H15.8571V36.1429H12.4286V32.7143ZM9 32.7143H12.4286V36.1429H9V32.7143ZM9 36.1429H12.4286V39.5714H9V36.1429ZM9 39.5714H12.4286V43H9V39.5714ZM9 43H12.4286V46.4286H9V43ZM9 46.4286H12.4286V49.8571H9V46.4286ZM9 49.8571H12.4286V53.2857H9V49.8571ZM9 53.2857H12.4286V56.7143H9V53.2857ZM9 56.7143H12.4286V60.1429H9V56.7143ZM9 60.1429H12.4286V63.5714H9V60.1429ZM9 63.5714H12.4286V67H9V63.5714ZM12.4286 63.5714H15.8571V67H12.4286V63.5714ZM12.4286 60.1429H15.8571V63.5714H12.4286V60.1429ZM12.4286 56.7143H15.8571V60.1429H12.4286V56.7143ZM12.4286 53.2857H15.8571V56.7143H12.4286V53.2857ZM12.4286 49.8571H15.8571V53.2857H12.4286V49.8571ZM12.4286 46.4286H15.8571V49.8571H12.4286V46.4286ZM12.4286 43H15.8571V46.4286H12.4286V43ZM12.4286 39.5714H15.8571V43H12.4286V39.5714ZM12.4286 36.1429H15.8571V39.5714H12.4286V36.1429ZM15.8571 49.8571H19.2857V53.2857H15.8571V49.8571ZM19.2857 49.8571H22.7143V53.2857H19.2857V49.8571ZM19.2857 46.4286H22.7143V49.8571H19.2857V46.4286ZM15.8571 46.4286H19.2857V49.8571H15.8571V46.4286ZM19.2857 43H22.7143V46.4286H19.2857V43ZM22.7143 43H26.1429V46.4286H22.7143V43ZM22.7143 39.5714H26.1429V43H22.7143V39.5714ZM22.7143 36.1429H26.1429V39.5714H22.7143V36.1429ZM22.7143 32.7143H26.1429V36.1429H22.7143V32.7143ZM26.1429 32.7143H29.5714V36.1429H26.1429V32.7143ZM26.1429 36.1429H29.5714V39.5714H26.1429V36.1429ZM26.1429 39.5714H29.5714V43H26.1429V39.5714ZM19.2857 53.2857H22.7143V56.7143H19.2857V53.2857ZM22.7143 53.2857H26.1429V56.7143H22.7143V53.2857ZM22.7143 56.7143H26.1429V60.1429H22.7143V56.7143ZM22.7143 60.1429H26.1429V63.5714H22.7143V60.1429ZM22.7143 63.5714H26.1429V67H22.7143V63.5714ZM26.1429 63.5714H29.5714V67H26.1429V63.5714ZM26.1429 60.1429H29.5714V63.5714H26.1429V60.1429ZM26.1429 56.7143H29.5714V60.1429H26.1429V56.7143ZM26.1429 53.2857H29.5714V56.7143H26.1429V53.2857ZM22.7143 49.8571H26.1429V53.2857H22.7143V49.8571ZM39.8571 36.1429H43.2857V39.5714H39.8571V36.1429ZM43.2857 36.1429H46.7143V39.5714H43.2857V36.1429ZM43.2857 32.7143H46.7143V36.1429H43.2857V32.7143ZM46.7143 36.1429H50.1429V39.5714H46.7143V36.1429ZM46.7143 39.5714H50.1429V43H46.7143V39.5714ZM50.1429 39.5714H53.5714V43H50.1429V39.5714ZM43.2857 39.5714H46.7143V43H43.2857V39.5714ZM39.8571 39.5714H43.2857V43H39.8571V39.5714ZM36.4286 39.5714H39.8571V43H36.4286V39.5714ZM36.4286 43H39.8571V46.4286H36.4286V43ZM33 43H36.4286V46.4286H33V43ZM39.8571 43H43.2857V46.4286H39.8571V43ZM36.4286 46.4286H39.8571V49.8571H36.4286V46.4286ZM36.4286 49.8571H39.8571V53.2857H36.4286V49.8571ZM36.4286 53.2857H39.8571V56.7143H36.4286V53.2857ZM39.8571 53.2857H43.2857V56.7143H39.8571V53.2857ZM43.2857 53.2857H46.7143V56.7143H43.2857V53.2857ZM46.7143 53.2857H50.1429V56.7143H46.7143V53.2857ZM50.1429 53.2857H53.5714V56.7143H50.1429V53.2857ZM53.5714 53.2857H57V56.7143H53.5714V53.2857ZM53.5714 49.8571H57V53.2857H53.5714V49.8571ZM53.5714 46.4286H57V49.8571H53.5714V46.4286ZM53.5714 43H57V46.4286H53.5714V43ZM50.1429 43H53.5714V46.4286H50.1429V43ZM46.7143 43H50.1429V46.4286H46.7143V43ZM50.1429 46.4286H53.5714V49.8571H50.1429V46.4286ZM50.1429 49.8571H53.5714V53.2857H50.1429V49.8571ZM50.1429 56.7143H53.5714V60.1429H50.1429V56.7143ZM53.5714 56.7143H57V60.1429H53.5714V56.7143ZM53.5714 60.1429H57V63.5714H53.5714V60.1429ZM53.5714 63.5714H57V67H53.5714V63.5714ZM50.1429 63.5714H53.5714V67H50.1429V63.5714ZM50.1429 60.1429H53.5714V63.5714H50.1429V60.1429ZM46.7143 56.7143H50.1429V60.1429H46.7143V56.7143ZM43.2857 56.7143H46.7143V60.1429H43.2857V56.7143ZM39.8571 56.7143H43.2857V60.1429H39.8571V56.7143ZM36.4286 56.7143H39.8571V60.1429H36.4286V56.7143ZM36.4286 60.1429H39.8571V63.5714H36.4286V60.1429ZM36.4286 63.5714H39.8571V67H36.4286V63.5714ZM33 63.5714H36.4286V67H33V63.5714ZM33 60.1429H36.4286V63.5714H33V60.1429ZM33 56.7143H36.4286V60.1429H33V56.7143ZM33 53.2857H36.4286V56.7143H33V53.2857ZM33 49.8571H36.4286V53.2857H33V49.8571ZM33 46.4286H36.4286V49.8571H33V46.4286ZM60.4375 32.7143H63.8661V36.1429H60.4375V32.7143ZM63.8661 32.7143H67.2946V36.1429H63.8661V32.7143ZM63.8661 36.1429H67.2946V39.5714H63.8661V36.1429ZM63.8661 39.5714H67.2946V43H63.8661V39.5714ZM60.4375 39.5714H63.8661V43H60.4375V39.5714ZM60.4375 36.1429H63.8661V39.5714H60.4375V36.1429ZM60.4375 43H63.8661V46.4286H60.4375V43ZM60.4375 46.4286H63.8661V49.8571H60.4375V46.4286ZM63.8661 46.4286H67.2946V49.8571H63.8661V46.4286ZM63.8661 43H67.2946V46.4286H63.8661V43ZM63.8661 49.8571H67.2946V53.2857H63.8661V49.8571ZM67.2946 49.8571H70.7232V53.2857H67.2946V49.8571ZM67.2946 46.4286H70.7232V49.8571H67.2946V46.4286ZM67.2946 53.2857H70.7232V56.7143H67.2946V53.2857ZM70.7232 53.2857H74.1518V56.7143H70.7232V53.2857ZM70.7232 49.8571H74.1518V53.2857H70.7232V49.8571ZM74.1518 49.8571H77.5804V53.2857H74.1518V49.8571ZM74.1518 53.2857H77.5804V56.7143H74.1518V53.2857ZM77.5804 53.2857H81.0089V56.7143H77.5804V53.2857ZM77.5804 49.8571H81.0089V53.2857H77.5804V49.8571ZM77.5804 46.4286H81.0089V49.8571H77.5804V46.4286ZM81.0089 46.4286H84.4375V49.8571H81.0089V46.4286ZM81.0089 49.8571H84.4375V53.2857H81.0089V49.8571ZM81.0089 43H84.4375V46.4286H81.0089V43ZM81.0089 39.5714H84.4375V43H81.0089V39.5714ZM81.0089 36.1429H84.4375V39.5714H81.0089V36.1429ZM81.0089 32.7143H84.4375V36.1429H81.0089V32.7143ZM84.4375 32.7143H87.8661V36.1429H84.4375V32.7143ZM84.4375 36.1429H87.8661V39.5714H84.4375V36.1429ZM84.4375 39.5714H87.8661V43H84.4375V39.5714ZM84.4375 43H87.8661V46.4286H84.4375V43ZM84.4375 46.4286H87.8661V49.8571H84.4375V46.4286ZM70.7232 56.7143H74.1518V60.1429H70.7232V56.7143ZM70.7232 60.1429H74.1518V63.5714H70.7232V60.1429ZM70.7232 63.5714H74.1518V67H70.7232V63.5714ZM74.1518 63.5714H77.5804V67H74.1518V63.5714ZM74.1518 60.1429H77.5804V63.5714H74.1518V60.1429ZM74.1518 56.7143H77.5804V60.1429H74.1518V56.7143Z" fill="white"/>
<path d="M12.4286 32.7143V31.7143H11.4286V32.7143H12.4286ZM15.8571 32.7143H16.8571V31.7143H15.8571V32.7143ZM15.8571 36.1429V37.1429H16.8571V36.1429H15.8571ZM12.4286 36.1429H11.4286V37.1429H12.4286V36.1429ZM9 32.7143V31.7143H8V32.7143H9ZM12.4286 32.7143H13.4286V31.7143H12.4286V32.7143ZM12.4286 36.1429V37.1429H13.4286V36.1429H12.4286ZM9 36.1429H8V37.1429H9V36.1429ZM9 36.1429V35.1429H8V36.1429H9ZM12.4286 36.1429H13.4286V35.1429H12.4286V36.1429ZM12.4286 39.5714V40.5714H13.4286V39.5714H12.4286ZM9 39.5714H8V40.5714H9V39.5714ZM9 39.5714V38.5714H8V39.5714H9ZM12.4286 39.5714H13.4286V38.5714H12.4286V39.5714ZM12.4286 43V44H13.4286V43H12.4286ZM9 43H8V44H9V43ZM9 43V42H8V43H9ZM12.4286 43H13.4286V42H12.4286V43ZM12.4286 46.4286V47.4286H13.4286V46.4286H12.4286ZM9 46.4286H8V47.4286H9V46.4286ZM9 46.4286V45.4286H8V46.4286H9ZM12.4286 46.4286H13.4286V45.4286H12.4286V46.4286ZM12.4286 49.8571V50.8571H13.4286V49.8571H12.4286ZM9 49.8571H8V50.8571H9V49.8571ZM9 49.8571V48.8571H8V49.8571H9ZM12.4286 49.8571H13.4286V48.8571H12.4286V49.8571ZM12.4286 53.2857V54.2857H13.4286V53.2857H12.4286ZM9 53.2857H8V54.2857H9V53.2857ZM9 53.2857V52.2857H8V53.2857H9ZM12.4286 53.2857H13.4286V52.2857H12.4286V53.2857ZM12.4286 56.7143V57.7143H13.4286V56.7143H12.4286ZM9 56.7143H8V57.7143H9V56.7143ZM9 56.7143V55.7143H8V56.7143H9ZM12.4286 56.7143H13.4286V55.7143H12.4286V56.7143ZM12.4286 60.1429V61.1429H13.4286V60.1429H12.4286ZM9 60.1429H8V61.1429H9V60.1429ZM9 60.1429V59.1429H8V60.1429H9ZM12.4286 60.1429H13.4286V59.1429H12.4286V60.1429ZM12.4286 63.5714V64.5714H13.4286V63.5714H12.4286ZM9 63.5714H8V64.5714H9V63.5714ZM9 63.5714V62.5714H8V63.5714H9ZM12.4286 63.5714H13.4286V62.5714H12.4286V63.5714ZM12.4286 67V68H13.4286V67H12.4286ZM9 67H8V68H9V67ZM12.4286 63.5714V62.5714H11.4286V63.5714H12.4286ZM15.8571 63.5714H16.8571V62.5714H15.8571V63.5714ZM15.8571 67V68H16.8571V67H15.8571ZM12.4286 67H11.4286V68H12.4286V67ZM12.4286 60.1429V59.1429H11.4286V60.1429H12.4286ZM15.8571 60.1429H16.8571V59.1429H15.8571V60.1429ZM15.8571 63.5714V64.5714H16.8571V63.5714H15.8571ZM12.4286 63.5714H11.4286V64.5714H12.4286V63.5714ZM12.4286 56.7143V55.7143H11.4286V56.7143H12.4286ZM15.8571 56.7143H16.8571V55.7143H15.8571V56.7143ZM15.8571 60.1429V61.1429H16.8571V60.1429H15.8571ZM12.4286 60.1429H11.4286V61.1429H12.4286V60.1429ZM12.4286 53.2857V52.2857H11.4286V53.2857H12.4286ZM15.8571 53.2857H16.8571V52.2857H15.8571V53.2857ZM15.8571 56.7143V57.7143H16.8571V56.7143H15.8571ZM12.4286 56.7143H11.4286V57.7143H12.4286V56.7143ZM12.4286 49.8571V48.8571H11.4286V49.8571H12.4286ZM15.8571 49.8571H16.8571V48.8571H15.8571V49.8571ZM15.8571 53.2857V54.2857H16.8571V53.2857H15.8571ZM12.4286 53.2857H11.4286V54.2857H12.4286V53.2857ZM12.4286 46.4286V45.4286H11.4286V46.4286H12.4286ZM15.8571 46.4286H16.8571V45.4286H15.8571V46.4286ZM15.8571 49.8571V50.8571H16.8571V49.8571H15.8571ZM12.4286 49.8571H11.4286V50.8571H12.4286V49.8571ZM12.4286 43V42H11.4286V43H12.4286ZM15.8571 43H16.8571V42H15.8571V43ZM15.8571 46.4286V47.4286H16.8571V46.4286H15.8571ZM12.4286 46.4286H11.4286V47.4286H12.4286V46.4286ZM12.4286 39.5714V38.5714H11.4286V39.5714H12.4286ZM15.8571 39.5714H16.8571V38.5714H15.8571V39.5714ZM15.8571 43V44H16.8571V43H15.8571ZM12.4286 43H11.4286V44H12.4286V43ZM12.4286 36.1429V35.1429H11.4286V36.1429H12.4286ZM15.8571 36.1429H16.8571V35.1429H15.8571V36.1429ZM15.8571 39.5714V40.5714H16.8571V39.5714H15.8571ZM12.4286 39.5714H11.4286V40.5714H12.4286V39.5714ZM15.8571 49.8571V48.8571H14.8571V49.8571H15.8571ZM19.2857 49.8571H20.2857V48.8571H19.2857V49.8571ZM19.2857 53.2857V54.2857H20.2857V53.2857H19.2857ZM15.8571 53.2857H14.8571V54.2857H15.8571V53.2857ZM19.2857 49.8571V48.8571H18.2857V49.8571H19.2857ZM22.7143 49.8571H23.7143V48.8571H22.7143V49.8571ZM22.7143 53.2857V54.2857H23.7143V53.2857H22.7143ZM19.2857 53.2857H18.2857V54.2857H19.2857V53.2857ZM19.2857 46.4286V45.4286H18.2857V46.4286H19.2857ZM22.7143 46.4286H23.7143V45.4286H22.7143V46.4286ZM22.7143 49.8571V50.8571H23.7143V49.8571H22.7143ZM19.2857 49.8571H18.2857V50.8571H19.2857V49.8571ZM15.8571 46.4286V45.4286H14.8571V46.4286H15.8571ZM19.2857 46.4286H20.2857V45.4286H19.2857V46.4286ZM19.2857 49.8571V50.8571H20.2857V49.8571H19.2857ZM15.8571 49.8571H14.8571V50.8571H15.8571V49.8571ZM19.2857 43V42H18.2857V43H19.2857ZM22.7143 43H23.7143V42H22.7143V43ZM22.7143 46.4286V47.4286H23.7143V46.4286H22.7143ZM19.2857 46.4286H18.2857V47.4286H19.2857V46.4286ZM22.7143 43V42H21.7143V43H22.7143ZM26.1429 43H27.1429V42H26.1429V43ZM26.1429 46.4286V47.4286H27.1429V46.4286H26.1429ZM22.7143 46.4286H21.7143V47.4286H22.7143V46.4286ZM22.7143 39.5714V38.5714H21.7143V39.5714H22.7143ZM26.1429 39.5714H27.1429V38.5714H26.1429V39.5714ZM26.1429 43V44H27.1429V43H26.1429ZM22.7143 43H21.7143V44H22.7143V43ZM22.7143 36.1429V35.1429H21.7143V36.1429H22.7143ZM26.1429 36.1429H27.1429V35.1429H26.1429V36.1429ZM26.1429 39.5714V40.5714H27.1429V39.5714H26.1429ZM22.7143 39.5714H21.7143V40.5714H22.7143V39.5714ZM22.7143 32.7143V31.7143H21.7143V32.7143H22.7143ZM26.1429 32.7143H27.1429V31.7143H26.1429V32.7143ZM26.1429 36.1429V37.1429H27.1429V36.1429H26.1429ZM22.7143 36.1429H21.7143V37.1429H22.7143V36.1429ZM26.1429 32.7143V31.7143H25.1429V32.7143H26.1429ZM29.5714 32.7143H30.5714V31.7143H29.5714V32.7143ZM29.5714 36.1429V37.1429H30.5714V36.1429H29.5714ZM26.1429 36.1429H25.1429V37.1429H26.1429V36.1429ZM26.1429 36.1429V35.1429H25.1429V36.1429H26.1429ZM29.5714 36.1429H30.5714V35.1429H29.5714V36.1429ZM29.5714 39.5714V40.5714H30.5714V39.5714H29.5714ZM26.1429 39.5714H25.1429V40.5714H26.1429V39.5714ZM26.1429 39.5714V38.5714H25.1429V39.5714H26.1429ZM29.5714 39.5714H30.5714V38.5714H29.5714V39.5714ZM29.5714 43V44H30.5714V43H29.5714ZM26.1429 43H25.1429V44H26.1429V43ZM19.2857 53.2857V52.2857H18.2857V53.2857H19.2857ZM22.7143 53.2857H23.7143V52.2857H22.7143V53.2857ZM22.7143 56.7143V57.7143H23.7143V56.7143H22.7143ZM19.2857 56.7143H18.2857V57.7143H19.2857V56.7143ZM22.7143 53.2857V52.2857H21.7143V53.2857H22.7143ZM26.1429 53.2857H27.1429V52.2857H26.1429V53.2857ZM26.1429 56.7143V57.7143H27.1429V56.7143H26.1429ZM22.7143 56.7143H21.7143V57.7143H22.7143V56.7143ZM22.7143 56.7143V55.7143H21.7143V56.7143H22.7143ZM26.1429 56.7143H27.1429V55.7143H26.1429V56.7143ZM26.1429 60.1429V61.1429H27.1429V60.1429H26.1429ZM22.7143 60.1429H21.7143V61.1429H22.7143V60.1429ZM22.7143 60.1429V59.1429H21.7143V60.1429H22.7143ZM26.1429 60.1429H27.1429V59.1429H26.1429V60.1429ZM26.1429 63.5714V64.5714H27.1429V63.5714H26.1429ZM22.7143 63.5714H21.7143V64.5714H22.7143V63.5714ZM22.7143 63.5714V62.5714H21.7143V63.5714H22.7143ZM26.1429 63.5714H27.1429V62.5714H26.1429V63.5714ZM26.1429 67V68H27.1429V67H26.1429ZM22.7143 67H21.7143V68H22.7143V67ZM26.1429 63.5714V62.5714H25.1429V63.5714H26.1429ZM29.5714 63.5714H30.5714V62.5714H29.5714V63.5714ZM29.5714 67V68H30.5714V67H29.5714ZM26.1429 67H25.1429V68H26.1429V67ZM26.1429 60.1429V59.1429H25.1429V60.1429H26.1429ZM29.5714 60.1429H30.5714V59.1429H29.5714V60.1429ZM29.5714 63.5714V64.5714H30.5714V63.5714H29.5714ZM26.1429 63.5714H25.1429V64.5714H26.1429V63.5714ZM26.1429 56.7143V55.7143H25.1429V56.7143H26.1429ZM29.5714 56.7143H30.5714V55.7143H29.5714V56.7143ZM29.5714 60.1429V61.1429H30.5714V60.1429H29.5714ZM26.1429 60.1429H25.1429V61.1429H26.1429V60.1429ZM26.1429 53.2857V52.2857H25.1429V53.2857H26.1429ZM29.5714 53.2857H30.5714V52.2857H29.5714V53.2857ZM29.5714 56.7143V57.7143H30.5714V56.7143H29.5714ZM26.1429 56.7143H25.1429V57.7143H26.1429V56.7143ZM22.7143 49.8571V48.8571H21.7143V49.8571H22.7143ZM26.1429 49.8571H27.1429V48.8571H26.1429V49.8571ZM26.1429 53.2857V54.2857H27.1429V53.2857H26.1429ZM22.7143 53.2857H21.7143V54.2857H22.7143V53.2857ZM12.4286 32.7143V33.7143H15.8571V32.7143V31.7143H12.4286V32.7143ZM15.8571 32.7143H14.8571V36.1429H15.8571H16.8571V32.7143H15.8571ZM15.8571 36.1429V35.1429H12.4286V36.1429V37.1429H15.8571V36.1429ZM12.4286 36.1429H13.4286V32.7143H12.4286H11.4286V36.1429H12.4286ZM9 32.7143V33.7143H12.4286V32.7143V31.7143H9V32.7143ZM12.4286 32.7143H11.4286V36.1429H12.4286H13.4286V32.7143H12.4286ZM12.4286 36.1429V35.1429H9V36.1429V37.1429H12.4286V36.1429ZM9 36.1429H10V32.7143H9H8V36.1429H9ZM9 36.1429V37.1429H12.4286V36.1429V35.1429H9V36.1429ZM12.4286 36.1429H11.4286V39.5714H12.4286H13.4286V36.1429H12.4286ZM12.4286 39.5714V38.5714H9V39.5714V40.5714H12.4286V39.5714ZM9 39.5714H10V36.1429H9H8V39.5714H9ZM9 39.5714V40.5714H12.4286V39.5714V38.5714H9V39.5714ZM12.4286 39.5714H11.4286V43H12.4286H13.4286V39.5714H12.4286ZM12.4286 43V42H9V43V44H12.4286V43ZM9 43H10V39.5714H9H8V43H9ZM9 43V44H12.4286V43V42H9V43ZM12.4286 43H11.4286V46.4286H12.4286H13.4286V43H12.4286ZM12.4286 46.4286V45.4286H9V46.4286V47.4286H12.4286V46.4286ZM9 46.4286H10V43H9H8V46.4286H9ZM9 46.4286V47.4286H12.4286V46.4286V45.4286H9V46.4286ZM12.4286 46.4286H11.4286V49.8571H12.4286H13.4286V46.4286H12.4286ZM12.4286 49.8571V48.8571H9V49.8571V50.8571H12.4286V49.8571ZM9 49.8571H10V46.4286H9H8V49.8571H9ZM9 49.8571V50.8571H12.4286V49.8571V48.8571H9V49.8571ZM12.4286 49.8571H11.4286V53.2857H12.4286H13.4286V49.8571H12.4286ZM12.4286 53.2857V52.2857H9V53.2857V54.2857H12.4286V53.2857ZM9 53.2857H10V49.8571H9H8V53.2857H9ZM9 53.2857V54.2857H12.4286V53.2857V52.2857H9V53.2857ZM12.4286 53.2857H11.4286V56.7143H12.4286H13.4286V53.2857H12.4286ZM12.4286 56.7143V55.7143H9V56.7143V57.7143H12.4286V56.7143ZM9 56.7143H10V53.2857H9H8V56.7143H9ZM9 56.7143V57.7143H12.4286V56.7143V55.7143H9V56.7143ZM12.4286 56.7143H11.4286V60.1429H12.4286H13.4286V56.7143H12.4286ZM12.4286 60.1429V59.1429H9V60.1429V61.1429H12.4286V60.1429ZM9 60.1429H10V56.7143H9H8V60.1429H9ZM9 60.1429V61.1429H12.4286V60.1429V59.1429H9V60.1429ZM12.4286 60.1429H11.4286V63.5714H12.4286H13.4286V60.1429H12.4286ZM12.4286 63.5714V62.5714H9V63.5714V64.5714H12.4286V63.5714ZM9 63.5714H10V60.1429H9H8V63.5714H9ZM9 63.5714V64.5714H12.4286V63.5714V62.5714H9V63.5714ZM12.4286 63.5714H11.4286V67H12.4286H13.4286V63.5714H12.4286ZM12.4286 67V66H9V67V68H12.4286V67ZM9 67H10V63.5714H9H8V67H9ZM12.4286 63.5714V64.5714H15.8571V63.5714V62.5714H12.4286V63.5714ZM15.8571 63.5714H14.8571V67H15.8571H16.8571V63.5714H15.8571ZM15.8571 67V66H12.4286V67V68H15.8571V67ZM12.4286 67H13.4286V63.5714H12.4286H11.4286V67H12.4286ZM12.4286 60.1429V61.1429H15.8571V60.1429V59.1429H12.4286V60.1429ZM15.8571 60.1429H14.8571V63.5714H15.8571H16.8571V60.1429H15.8571ZM15.8571 63.5714V62.5714H12.4286V63.5714V64.5714H15.8571V63.5714ZM12.4286 63.5714H13.4286V60.1429H12.4286H11.4286V63.5714H12.4286ZM12.4286 56.7143V57.7143H15.8571V56.7143V55.7143H12.4286V56.7143ZM15.8571 56.7143H14.8571V60.1429H15.8571H16.8571V56.7143H15.8571ZM15.8571 60.1429V59.1429H12.4286V60.1429V61.1429H15.8571V60.1429ZM12.4286 60.1429H13.4286V56.7143H12.4286H11.4286V60.1429H12.4286ZM12.4286 53.2857V54.2857H15.8571V53.2857V52.2857H12.4286V53.2857ZM15.8571 53.2857H14.8571V56.7143H15.8571H16.8571V53.2857H15.8571ZM15.8571 56.7143V55.7143H12.4286V56.7143V57.7143H15.8571V56.7143ZM12.4286 56.7143H13.4286V53.2857H12.4286H11.4286V56.7143H12.4286ZM12.4286 49.8571V50.8571H15.8571V49.8571V48.8571H12.4286V49.8571ZM15.8571 49.8571H14.8571V53.2857H15.8571H16.8571V49.8571H15.8571ZM15.8571 53.2857V52.2857H12.4286V53.2857V54.2857H15.8571V53.2857ZM12.4286 53.2857H13.4286V49.8571H12.4286H11.4286V53.2857H12.4286ZM12.4286 46.4286V47.4286H15.8571V46.4286V45.4286H12.4286V46.4286ZM15.8571 46.4286H14.8571V49.8571H15.8571H16.8571V46.4286H15.8571ZM15.8571 49.8571V48.8571H12.4286V49.8571V50.8571H15.8571V49.8571ZM12.4286 49.8571H13.4286V46.4286H12.4286H11.4286V49.8571H12.4286ZM12.4286 43V44H15.8571V43V42H12.4286V43ZM15.8571 43H14.8571V46.4286H15.8571H16.8571V43H15.8571ZM15.8571 46.4286V45.4286H12.4286V46.4286V47.4286H15.8571V46.4286ZM12.4286 46.4286H13.4286V43H12.4286H11.4286V46.4286H12.4286ZM12.4286 39.5714V40.5714H15.8571V39.5714V38.5714H12.4286V39.5714ZM15.8571 39.5714H14.8571V43H15.8571H16.8571V39.5714H15.8571ZM15.8571 43V42H12.4286V43V44H15.8571V43ZM12.4286 43H13.4286V39.5714H12.4286H11.4286V43H12.4286ZM12.4286 36.1429V37.1429H15.8571V36.1429V35.1429H12.4286V36.1429ZM15.8571 36.1429H14.8571V39.5714H15.8571H16.8571V36.1429H15.8571ZM15.8571 39.5714V38.5714H12.4286V39.5714V40.5714H15.8571V39.5714ZM12.4286 39.5714H13.4286V36.1429H12.4286H11.4286V39.5714H12.4286ZM15.8571 49.8571V50.8571H19.2857V49.8571V48.8571H15.8571V49.8571ZM19.2857 49.8571H18.2857V53.2857H19.2857H20.2857V49.8571H19.2857ZM19.2857 53.2857V52.2857H15.8571V53.2857V54.2857H19.2857V53.2857ZM15.8571 53.2857H16.8571V49.8571H15.8571H14.8571V53.2857H15.8571ZM19.2857 49.8571V50.8571H22.7143V49.8571V48.8571H19.2857V49.8571ZM22.7143 49.8571H21.7143V53.2857H22.7143H23.7143V49.8571H22.7143ZM22.7143 53.2857V52.2857H19.2857V53.2857V54.2857H22.7143V53.2857ZM19.2857 53.2857H20.2857V49.8571H19.2857H18.2857V53.2857H19.2857ZM19.2857 46.4286V47.4286H22.7143V46.4286V45.4286H19.2857V46.4286ZM22.7143 46.4286H21.7143V49.8571H22.7143H23.7143V46.4286H22.7143ZM22.7143 49.8571V48.8571H19.2857V49.8571V50.8571H22.7143V49.8571ZM19.2857 49.8571H20.2857V46.4286H19.2857H18.2857V49.8571H19.2857ZM15.8571 46.4286V47.4286H19.2857V46.4286V45.4286H15.8571V46.4286ZM19.2857 46.4286H18.2857V49.8571H19.2857H20.2857V46.4286H19.2857ZM19.2857 49.8571V48.8571H15.8571V49.8571V50.8571H19.2857V49.8571ZM15.8571 49.8571H16.8571V46.4286H15.8571H14.8571V49.8571H15.8571ZM19.2857 43V44H22.7143V43V42H19.2857V43ZM22.7143 43H21.7143V46.4286H22.7143H23.7143V43H22.7143ZM22.7143 46.4286V45.4286H19.2857V46.4286V47.4286H22.7143V46.4286ZM19.2857 46.4286H20.2857V43H19.2857H18.2857V46.4286H19.2857ZM22.7143 43V44H26.1429V43V42H22.7143V43ZM26.1429 43H25.1429V46.4286H26.1429H27.1429V43H26.1429ZM26.1429 46.4286V45.4286H22.7143V46.4286V47.4286H26.1429V46.4286ZM22.7143 46.4286H23.7143V43H22.7143H21.7143V46.4286H22.7143ZM22.7143 39.5714V40.5714H26.1429V39.5714V38.5714H22.7143V39.5714ZM26.1429 39.5714H25.1429V43H26.1429H27.1429V39.5714H26.1429ZM26.1429 43V42H22.7143V43V44H26.1429V43ZM22.7143 43H23.7143V39.5714H22.7143H21.7143V43H22.7143ZM22.7143 36.1429V37.1429H26.1429V36.1429V35.1429H22.7143V36.1429ZM26.1429 36.1429H25.1429V39.5714H26.1429H27.1429V36.1429H26.1429ZM26.1429 39.5714V38.5714H22.7143V39.5714V40.5714H26.1429V39.5714ZM22.7143 39.5714H23.7143V36.1429H22.7143H21.7143V39.5714H22.7143ZM22.7143 32.7143V33.7143H26.1429V32.7143V31.7143H22.7143V32.7143ZM26.1429 32.7143H25.1429V36.1429H26.1429H27.1429V32.7143H26.1429ZM26.1429 36.1429V35.1429H22.7143V36.1429V37.1429H26.1429V36.1429ZM22.7143 36.1429H23.7143V32.7143H22.7143H21.7143V36.1429H22.7143ZM26.1429 32.7143V33.7143H29.5714V32.7143V31.7143H26.1429V32.7143ZM29.5714 32.7143H28.5714V36.1429H29.5714H30.5714V32.7143H29.5714ZM29.5714 36.1429V35.1429H26.1429V36.1429V37.1429H29.5714V36.1429ZM26.1429 36.1429H27.1429V32.7143H26.1429H25.1429V36.1429H26.1429ZM26.1429 36.1429V37.1429H29.5714V36.1429V35.1429H26.1429V36.1429ZM29.5714 36.1429H28.5714V39.5714H29.5714H30.5714V36.1429H29.5714ZM29.5714 39.5714V38.5714H26.1429V39.5714V40.5714H29.5714V39.5714ZM26.1429 39.5714H27.1429V36.1429H26.1429H25.1429V39.5714H26.1429ZM26.1429 39.5714V40.5714H29.5714V39.5714V38.5714H26.1429V39.5714ZM29.5714 39.5714H28.5714V43H29.5714H30.5714V39.5714H29.5714ZM29.5714 43V42H26.1429V43V44H29.5714V43ZM26.1429 43H27.1429V39.5714H26.1429H25.1429V43H26.1429ZM19.2857 53.2857V54.2857H22.7143V53.2857V52.2857H19.2857V53.2857ZM22.7143 53.2857H21.7143V56.7143H22.7143H23.7143V53.2857H22.7143ZM22.7143 56.7143V55.7143H19.2857V56.7143V57.7143H22.7143V56.7143ZM19.2857 56.7143H20.2857V53.2857H19.2857H18.2857V56.7143H19.2857ZM22.7143 53.2857V54.2857H26.1429V53.2857V52.2857H22.7143V53.2857ZM26.1429 53.2857H25.1429V56.7143H26.1429H27.1429V53.2857H26.1429ZM26.1429 56.7143V55.7143H22.7143V56.7143V57.7143H26.1429V56.7143ZM22.7143 56.7143H23.7143V53.2857H22.7143H21.7143V56.7143H22.7143ZM22.7143 56.7143V57.7143H26.1429V56.7143V55.7143H22.7143V56.7143ZM26.1429 56.7143H25.1429V60.1429H26.1429H27.1429V56.7143H26.1429ZM26.1429 60.1429V59.1429H22.7143V60.1429V61.1429H26.1429V60.1429ZM22.7143 60.1429H23.7143V56.7143H22.7143H21.7143V60.1429H22.7143ZM22.7143 60.1429V61.1429H26.1429V60.1429V59.1429H22.7143V60.1429ZM26.1429 60.1429H25.1429V63.5714H26.1429H27.1429V60.1429H26.1429ZM26.1429 63.5714V62.5714H22.7143V63.5714V64.5714H26.1429V63.5714ZM22.7143 63.5714H23.7143V60.1429H22.7143H21.7143V63.5714H22.7143ZM22.7143 63.5714V64.5714H26.1429V63.5714V62.5714H22.7143V63.5714ZM26.1429 63.5714H25.1429V67H26.1429H27.1429V63.5714H26.1429ZM26.1429 67V66H22.7143V67V68H26.1429V67ZM22.7143 67H23.7143V63.5714H22.7143H21.7143V67H22.7143ZM26.1429 63.5714V64.5714H29.5714V63.5714V62.5714H26.1429V63.5714ZM29.5714 63.5714H28.5714V67H29.5714H30.5714V63.5714H29.5714ZM29.5714 67V66H26.1429V67V68H29.5714V67ZM26.1429 67H27.1429V63.5714H26.1429H25.1429V67H26.1429ZM26.1429 60.1429V61.1429H29.5714V60.1429V59.1429H26.1429V60.1429ZM29.5714 60.1429H28.5714V63.5714H29.5714H30.5714V60.1429H29.5714ZM29.5714 63.5714V62.5714H26.1429V63.5714V64.5714H29.5714V63.5714ZM26.1429 63.5714H27.1429V60.1429H26.1429H25.1429V63.5714H26.1429ZM26.1429 56.7143V57.7143H29.5714V56.7143V55.7143H26.1429V56.7143ZM29.5714 56.7143H28.5714V60.1429H29.5714H30.5714V56.7143H29.5714ZM29.5714 60.1429V59.1429H26.1429V60.1429V61.1429H29.5714V60.1429ZM26.1429 60.1429H27.1429V56.7143H26.1429H25.1429V60.1429H26.1429ZM26.1429 53.2857V54.2857H29.5714V53.2857V52.2857H26.1429V53.2857ZM29.5714 53.2857H28.5714V56.7143H29.5714H30.5714V53.2857H29.5714ZM29.5714 56.7143V55.7143H26.1429V56.7143V57.7143H29.5714V56.7143ZM26.1429 56.7143H27.1429V53.2857H26.1429H25.1429V56.7143H26.1429ZM22.7143 49.8571V50.8571H26.1429V49.8571V48.8571H22.7143V49.8571ZM26.1429 49.8571H25.1429V53.2857H26.1429H27.1429V49.8571H26.1429ZM26.1429 53.2857V52.2857H22.7143V53.2857V54.2857H26.1429V53.2857ZM22.7143 53.2857H23.7143V49.8571H22.7143H21.7143V53.2857H22.7143ZM39.8571 36.1429V35.1429H38.8571V36.1429H39.8571ZM43.2857 36.1429H44.2857V35.1429H43.2857V36.1429ZM43.2857 39.5714V40.5714H44.2857V39.5714H43.2857ZM39.8571 39.5714H38.8571V40.5714H39.8571V39.5714ZM43.2857 36.1429V35.1429H42.2857V36.1429H43.2857ZM46.7143 36.1429H47.7143V35.1429H46.7143V36.1429ZM46.7143 39.5714V40.5714H47.7143V39.5714H46.7143ZM43.2857 39.5714H42.2857V40.5714H43.2857V39.5714ZM43.2857 32.7143V31.7143H42.2857V32.7143H43.2857ZM46.7143 32.7143H47.7143V31.7143H46.7143V32.7143ZM46.7143 36.1429V37.1429H47.7143V36.1429H46.7143ZM43.2857 36.1429H42.2857V37.1429H43.2857V36.1429ZM46.7143 36.1429V35.1429H45.7143V36.1429H46.7143ZM50.1429 36.1429H51.1429V35.1429H50.1429V36.1429ZM50.1429 39.5714V40.5714H51.1429V39.5714H50.1429ZM46.7143 39.5714H45.7143V40.5714H46.7143V39.5714ZM46.7143 39.5714V38.5714H45.7143V39.5714H46.7143ZM50.1429 39.5714H51.1429V38.5714H50.1429V39.5714ZM50.1429 43V44H51.1429V43H50.1429ZM46.7143 43H45.7143V44H46.7143V43ZM50.1429 39.5714V38.5714H49.1429V39.5714H50.1429ZM53.5714 39.5714H54.5714V38.5714H53.5714V39.5714ZM53.5714 43V44H54.5714V43H53.5714ZM50.1429 43H49.1429V44H50.1429V43ZM43.2857 39.5714V38.5714H42.2857V39.5714H43.2857ZM46.7143 39.5714H47.7143V38.5714H46.7143V39.5714ZM46.7143 43V44H47.7143V43H46.7143ZM43.2857 43H42.2857V44H43.2857V43ZM39.8571 39.5714V38.5714H38.8571V39.5714H39.8571ZM43.2857 39.5714H44.2857V38.5714H43.2857V39.5714ZM43.2857 43V44H44.2857V43H43.2857ZM39.8571 43H38.8571V44H39.8571V43ZM36.4286 39.5714V38.5714H35.4286V39.5714H36.4286ZM39.8571 39.5714H40.8571V38.5714H39.8571V39.5714ZM39.8571 43V44H40.8571V43H39.8571ZM36.4286 43H35.4286V44H36.4286V43ZM36.4286 43V42H35.4286V43H36.4286ZM39.8571 43H40.8571V42H39.8571V43ZM39.8571 46.4286V47.4286H40.8571V46.4286H39.8571ZM36.4286 46.4286H35.4286V47.4286H36.4286V46.4286ZM33 43V42H32V43H33ZM36.4286 43H37.4286V42H36.4286V43ZM36.4286 46.4286V47.4286H37.4286V46.4286H36.4286ZM33 46.4286H32V47.4286H33V46.4286ZM39.8571 43V42H38.8571V43H39.8571ZM43.2857 43H44.2857V42H43.2857V43ZM43.2857 46.4286V47.4286H44.2857V46.4286H43.2857ZM39.8571 46.4286H38.8571V47.4286H39.8571V46.4286ZM36.4286 46.4286V45.4286H35.4286V46.4286H36.4286ZM39.8571 46.4286H40.8571V45.4286H39.8571V46.4286ZM39.8571 49.8571V50.8571H40.8571V49.8571H39.8571ZM36.4286 49.8571H35.4286V50.8571H36.4286V49.8571ZM36.4286 49.8571V48.8571H35.4286V49.8571H36.4286ZM39.8571 49.8571H40.8571V48.8571H39.8571V49.8571ZM39.8571 53.2857V54.2857H40.8571V53.2857H39.8571ZM36.4286 53.2857H35.4286V54.2857H36.4286V53.2857ZM36.4286 53.2857V52.2857H35.4286V53.2857H36.4286ZM39.8571 53.2857H40.8571V52.2857H39.8571V53.2857ZM39.8571 56.7143V57.7143H40.8571V56.7143H39.8571ZM36.4286 56.7143H35.4286V57.7143H36.4286V56.7143ZM39.8571 53.2857V52.2857H38.8571V53.2857H39.8571ZM43.2857 53.2857H44.2857V52.2857H43.2857V53.2857ZM43.2857 56.7143V57.7143H44.2857V56.7143H43.2857ZM39.8571 56.7143H38.8571V57.7143H39.8571V56.7143ZM43.2857 53.2857V52.2857H42.2857V53.2857H43.2857ZM46.7143 53.2857H47.7143V52.2857H46.7143V53.2857ZM46.7143 56.7143V57.7143H47.7143V56.7143H46.7143ZM43.2857 56.7143H42.2857V57.7143H43.2857V56.7143ZM46.7143 53.2857V52.2857H45.7143V53.2857H46.7143ZM50.1429 53.2857H51.1429V52.2857H50.1429V53.2857ZM50.1429 56.7143V57.7143H51.1429V56.7143H50.1429ZM46.7143 56.7143H45.7143V57.7143H46.7143V56.7143ZM50.1429 53.2857V52.2857H49.1429V53.2857H50.1429ZM53.5714 53.2857H54.5714V52.2857H53.5714V53.2857ZM53.5714 56.7143V57.7143H54.5714V56.7143H53.5714ZM50.1429 56.7143H49.1429V57.7143H50.1429V56.7143ZM53.5714 53.2857V52.2857H52.5714V53.2857H53.5714ZM57 53.2857H58V52.2857H57V53.2857ZM57 56.7143V57.7143H58V56.7143H57ZM53.5714 56.7143H52.5714V57.7143H53.5714V56.7143ZM53.5714 49.8571V48.8571H52.5714V49.8571H53.5714ZM57 49.8571H58V48.8571H57V49.8571ZM57 53.2857V54.2857H58V53.2857H57ZM53.5714 53.2857H52.5714V54.2857H53.5714V53.2857ZM53.5714 46.4286V45.4286H52.5714V46.4286H53.5714ZM57 46.4286H58V45.4286H57V46.4286ZM57 49.8571V50.8571H58V49.8571H57ZM53.5714 49.8571H52.5714V50.8571H53.5714V49.8571ZM53.5714 43V42H52.5714V43H53.5714ZM57 43H58V42H57V43ZM57 46.4286V47.4286H58V46.4286H57ZM53.5714 46.4286H52.5714V47.4286H53.5714V46.4286ZM50.1429 43V42H49.1429V43H50.1429ZM53.5714 43H54.5714V42H53.5714V43ZM53.5714 46.4286V47.4286H54.5714V46.4286H53.5714ZM50.1429 46.4286H49.1429V47.4286H50.1429V46.4286ZM46.7143 43V42H45.7143V43H46.7143ZM50.1429 43H51.1429V42H50.1429V43ZM50.1429 46.4286V47.4286H51.1429V46.4286H50.1429ZM46.7143 46.4286H45.7143V47.4286H46.7143V46.4286ZM50.1429 46.4286V45.4286H49.1429V46.4286H50.1429ZM53.5714 46.4286H54.5714V45.4286H53.5714V46.4286ZM53.5714 49.8571V50.8571H54.5714V49.8571H53.5714ZM50.1429 49.8571H49.1429V50.8571H50.1429V49.8571ZM50.1429 49.8571V48.8571H49.1429V49.8571H50.1429ZM53.5714 49.8571H54.5714V48.8571H53.5714V49.8571ZM53.5714 53.2857V54.2857H54.5714V53.2857H53.5714ZM50.1429 53.2857H49.1429V54.2857H50.1429V53.2857ZM50.1429 56.7143V55.7143H49.1429V56.7143H50.1429ZM53.5714 56.7143H54.5714V55.7143H53.5714V56.7143ZM53.5714 60.1429V61.1429H54.5714V60.1429H53.5714ZM50.1429 60.1429H49.1429V61.1429H50.1429V60.1429ZM53.5714 56.7143V55.7143H52.5714V56.7143H53.5714ZM57 56.7143H58V55.7143H57V56.7143ZM57 60.1429V61.1429H58V60.1429H57ZM53.5714 60.1429H52.5714V61.1429H53.5714V60.1429ZM53.5714 60.1429V59.1429H52.5714V60.1429H53.5714ZM57 60.1429H58V59.1429H57V60.1429ZM57 63.5714V64.5714H58V63.5714H57ZM53.5714 63.5714H52.5714V64.5714H53.5714V63.5714ZM53.5714 63.5714V62.5714H52.5714V63.5714H53.5714ZM57 63.5714H58V62.5714H57V63.5714ZM57 67V68H58V67H57ZM53.5714 67H52.5714V68H53.5714V67ZM50.1429 63.5714V62.5714H49.1429V63.5714H50.1429ZM53.5714 63.5714H54.5714V62.5714H53.5714V63.5714ZM53.5714 67V68H54.5714V67H53.5714ZM50.1429 67H49.1429V68H50.1429V67ZM50.1429 60.1429V59.1429H49.1429V60.1429H50.1429ZM53.5714 60.1429H54.5714V59.1429H53.5714V60.1429ZM53.5714 63.5714V64.5714H54.5714V63.5714H53.5714ZM50.1429 63.5714H49.1429V64.5714H50.1429V63.5714ZM46.7143 56.7143V55.7143H45.7143V56.7143H46.7143ZM50.1429 56.7143H51.1429V55.7143H50.1429V56.7143ZM50.1429 60.1429V61.1429H51.1429V60.1429H50.1429ZM46.7143 60.1429H45.7143V61.1429H46.7143V60.1429ZM43.2857 56.7143V55.7143H42.2857V56.7143H43.2857ZM46.7143 56.7143H47.7143V55.7143H46.7143V56.7143ZM46.7143 60.1429V61.1429H47.7143V60.1429H46.7143ZM43.2857 60.1429H42.2857V61.1429H43.2857V60.1429ZM39.8571 56.7143V55.7143H38.8571V56.7143H39.8571ZM43.2857 56.7143H44.2857V55.7143H43.2857V56.7143ZM43.2857 60.1429V61.1429H44.2857V60.1429H43.2857ZM39.8571 60.1429H38.8571V61.1429H39.8571V60.1429ZM36.4286 56.7143V55.7143H35.4286V56.7143H36.4286ZM39.8571 56.7143H40.8571V55.7143H39.8571V56.7143ZM39.8571 60.1429V61.1429H40.8571V60.1429H39.8571ZM36.4286 60.1429H35.4286V61.1429H36.4286V60.1429ZM36.4286 60.1429V59.1429H35.4286V60.1429H36.4286ZM39.8571 60.1429H40.8571V59.1429H39.8571V60.1429ZM39.8571 63.5714V64.5714H40.8571V63.5714H39.8571ZM36.4286 63.5714H35.4286V64.5714H36.4286V63.5714ZM36.4286 63.5714V62.5714H35.4286V63.5714H36.4286ZM39.8571 63.5714H40.8571V62.5714H39.8571V63.5714ZM39.8571 67V68H40.8571V67H39.8571ZM36.4286 67H35.4286V68H36.4286V67ZM33 63.5714V62.5714H32V63.5714H33ZM36.4286 63.5714H37.4286V62.5714H36.4286V63.5714ZM36.4286 67V68H37.4286V67H36.4286ZM33 67H32V68H33V67ZM33 60.1429V59.1429H32V60.1429H33ZM36.4286 60.1429H37.4286V59.1429H36.4286V60.1429ZM36.4286 63.5714V64.5714H37.4286V63.5714H36.4286ZM33 63.5714H32V64.5714H33V63.5714ZM33 56.7143V55.7143H32V56.7143H33ZM36.4286 56.7143H37.4286V55.7143H36.4286V56.7143ZM36.4286 60.1429V61.1429H37.4286V60.1429H36.4286ZM33 60.1429H32V61.1429H33V60.1429ZM33 53.2857V52.2857H32V53.2857H33ZM36.4286 53.2857H37.4286V52.2857H36.4286V53.2857ZM36.4286 56.7143V57.7143H37.4286V56.7143H36.4286ZM33 56.7143H32V57.7143H33V56.7143ZM33 49.8571V48.8571H32V49.8571H33ZM36.4286 49.8571H37.4286V48.8571H36.4286V49.8571ZM36.4286 53.2857V54.2857H37.4286V53.2857H36.4286ZM33 53.2857H32V54.2857H33V53.2857ZM33 46.4286V45.4286H32V46.4286H33ZM36.4286 46.4286H37.4286V45.4286H36.4286V46.4286ZM36.4286 49.8571V50.8571H37.4286V49.8571H36.4286ZM33 49.8571H32V50.8571H33V49.8571ZM39.8571 36.1429V37.1429H43.2857V36.1429V35.1429H39.8571V36.1429ZM43.2857 36.1429H42.2857V39.5714H43.2857H44.2857V36.1429H43.2857ZM43.2857 39.5714V38.5714H39.8571V39.5714V40.5714H43.2857V39.5714ZM39.8571 39.5714H40.8571V36.1429H39.8571H38.8571V39.5714H39.8571ZM43.2857 36.1429V37.1429H46.7143V36.1429V35.1429H43.2857V36.1429ZM46.7143 36.1429H45.7143V39.5714H46.7143H47.7143V36.1429H46.7143ZM46.7143 39.5714V38.5714H43.2857V39.5714V40.5714H46.7143V39.5714ZM43.2857 39.5714H44.2857V36.1429H43.2857H42.2857V39.5714H43.2857ZM43.2857 32.7143V33.7143H46.7143V32.7143V31.7143H43.2857V32.7143ZM46.7143 32.7143H45.7143V36.1429H46.7143H47.7143V32.7143H46.7143ZM46.7143 36.1429V35.1429H43.2857V36.1429V37.1429H46.7143V36.1429ZM43.2857 36.1429H44.2857V32.7143H43.2857H42.2857V36.1429H43.2857ZM46.7143 36.1429V37.1429H50.1429V36.1429V35.1429H46.7143V36.1429ZM50.1429 36.1429H49.1429V39.5714H50.1429H51.1429V36.1429H50.1429ZM50.1429 39.5714V38.5714H46.7143V39.5714V40.5714H50.1429V39.5714ZM46.7143 39.5714H47.7143V36.1429H46.7143H45.7143V39.5714H46.7143ZM46.7143 39.5714V40.5714H50.1429V39.5714V38.5714H46.7143V39.5714ZM50.1429 39.5714H49.1429V43H50.1429H51.1429V39.5714H50.1429ZM50.1429 43V42H46.7143V43V44H50.1429V43ZM46.7143 43H47.7143V39.5714H46.7143H45.7143V43H46.7143ZM50.1429 39.5714V40.5714H53.5714V39.5714V38.5714H50.1429V39.5714ZM53.5714 39.5714H52.5714V43H53.5714H54.5714V39.5714H53.5714ZM53.5714 43V42H50.1429V43V44H53.5714V43ZM50.1429 43H51.1429V39.5714H50.1429H49.1429V43H50.1429ZM43.2857 39.5714V40.5714H46.7143V39.5714V38.5714H43.2857V39.5714ZM46.7143 39.5714H45.7143V43H46.7143H47.7143V39.5714H46.7143ZM46.7143 43V42H43.2857V43V44H46.7143V43ZM43.2857 43H44.2857V39.5714H43.2857H42.2857V43H43.2857ZM39.8571 39.5714V40.5714H43.2857V39.5714V38.5714H39.8571V39.5714ZM43.2857 39.5714H42.2857V43H43.2857H44.2857V39.5714H43.2857ZM43.2857 43V42H39.8571V43V44H43.2857V43ZM39.8571 43H40.8571V39.5714H39.8571H38.8571V43H39.8571ZM36.4286 39.5714V40.5714H39.8571V39.5714V38.5714H36.4286V39.5714ZM39.8571 39.5714H38.8571V43H39.8571H40.8571V39.5714H39.8571ZM39.8571 43V42H36.4286V43V44H39.8571V43ZM36.4286 43H37.4286V39.5714H36.4286H35.4286V43H36.4286ZM36.4286 43V44H39.8571V43V42H36.4286V43ZM39.8571 43H38.8571V46.4286H39.8571H40.8571V43H39.8571ZM39.8571 46.4286V45.4286H36.4286V46.4286V47.4286H39.8571V46.4286ZM36.4286 46.4286H37.4286V43H36.4286H35.4286V46.4286H36.4286ZM33 43V44H36.4286V43V42H33V43ZM36.4286 43H35.4286V46.4286H36.4286H37.4286V43H36.4286ZM36.4286 46.4286V45.4286H33V46.4286V47.4286H36.4286V46.4286ZM33 46.4286H34V43H33H32V46.4286H33ZM39.8571 43V44H43.2857V43V42H39.8571V43ZM43.2857 43H42.2857V46.4286H43.2857H44.2857V43H43.2857ZM43.2857 46.4286V45.4286H39.8571V46.4286V47.4286H43.2857V46.4286ZM39.8571 46.4286H40.8571V43H39.8571H38.8571V46.4286H39.8571ZM36.4286 46.4286V47.4286H39.8571V46.4286V45.4286H36.4286V46.4286ZM39.8571 46.4286H38.8571V49.8571H39.8571H40.8571V46.4286H39.8571ZM39.8571 49.8571V48.8571H36.4286V49.8571V50.8571H39.8571V49.8571ZM36.4286 49.8571H37.4286V46.4286H36.4286H35.4286V49.8571H36.4286ZM36.4286 49.8571V50.8571H39.8571V49.8571V48.8571H36.4286V49.8571ZM39.8571 49.8571H38.8571V53.2857H39.8571H40.8571V49.8571H39.8571ZM39.8571 53.2857V52.2857H36.4286V53.2857V54.2857H39.8571V53.2857ZM36.4286 53.2857H37.4286V49.8571H36.4286H35.4286V53.2857H36.4286ZM36.4286 53.2857V54.2857H39.8571V53.2857V52.2857H36.4286V53.2857ZM39.8571 53.2857H38.8571V56.7143H39.8571H40.8571V53.2857H39.8571ZM39.8571 56.7143V55.7143H36.4286V56.7143V57.7143H39.8571V56.7143ZM36.4286 56.7143H37.4286V53.2857H36.4286H35.4286V56.7143H36.4286ZM39.8571 53.2857V54.2857H43.2857V53.2857V52.2857H39.8571V53.2857ZM43.2857 53.2857H42.2857V56.7143H43.2857H44.2857V53.2857H43.2857ZM43.2857 56.7143V55.7143H39.8571V56.7143V57.7143H43.2857V56.7143ZM39.8571 56.7143H40.8571V53.2857H39.8571H38.8571V56.7143H39.8571ZM43.2857 53.2857V54.2857H46.7143V53.2857V52.2857H43.2857V53.2857ZM46.7143 53.2857H45.7143V56.7143H46.7143H47.7143V53.2857H46.7143ZM46.7143 56.7143V55.7143H43.2857V56.7143V57.7143H46.7143V56.7143ZM43.2857 56.7143H44.2857V53.2857H43.2857H42.2857V56.7143H43.2857ZM46.7143 53.2857V54.2857H50.1429V53.2857V52.2857H46.7143V53.2857ZM50.1429 53.2857H49.1429V56.7143H50.1429H51.1429V53.2857H50.1429ZM50.1429 56.7143V55.7143H46.7143V56.7143V57.7143H50.1429V56.7143ZM46.7143 56.7143H47.7143V53.2857H46.7143H45.7143V56.7143H46.7143ZM50.1429 53.2857V54.2857H53.5714V53.2857V52.2857H50.1429V53.2857ZM53.5714 53.2857H52.5714V56.7143H53.5714H54.5714V53.2857H53.5714ZM53.5714 56.7143V55.7143H50.1429V56.7143V57.7143H53.5714V56.7143ZM50.1429 56.7143H51.1429V53.2857H50.1429H49.1429V56.7143H50.1429ZM53.5714 53.2857V54.2857H57V53.2857V52.2857H53.5714V53.2857ZM57 53.2857H56V56.7143H57H58V53.2857H57ZM57 56.7143V55.7143H53.5714V56.7143V57.7143H57V56.7143ZM53.5714 56.7143H54.5714V53.2857H53.5714H52.5714V56.7143H53.5714ZM53.5714 49.8571V50.8571H57V49.8571V48.8571H53.5714V49.8571ZM57 49.8571H56V53.2857H57H58V49.8571H57ZM57 53.2857V52.2857H53.5714V53.2857V54.2857H57V53.2857ZM53.5714 53.2857H54.5714V49.8571H53.5714H52.5714V53.2857H53.5714ZM53.5714 46.4286V47.4286H57V46.4286V45.4286H53.5714V46.4286ZM57 46.4286H56V49.8571H57H58V46.4286H57ZM57 49.8571V48.8571H53.5714V49.8571V50.8571H57V49.8571ZM53.5714 49.8571H54.5714V46.4286H53.5714H52.5714V49.8571H53.5714ZM53.5714 43V44H57V43V42H53.5714V43ZM57 43H56V46.4286H57H58V43H57ZM57 46.4286V45.4286H53.5714V46.4286V47.4286H57V46.4286ZM53.5714 46.4286H54.5714V43H53.5714H52.5714V46.4286H53.5714ZM50.1429 43V44H53.5714V43V42H50.1429V43ZM53.5714 43H52.5714V46.4286H53.5714H54.5714V43H53.5714ZM53.5714 46.4286V45.4286H50.1429V46.4286V47.4286H53.5714V46.4286ZM50.1429 46.4286H51.1429V43H50.1429H49.1429V46.4286H50.1429ZM46.7143 43V44H50.1429V43V42H46.7143V43ZM50.1429 43H49.1429V46.4286H50.1429H51.1429V43H50.1429ZM50.1429 46.4286V45.4286H46.7143V46.4286V47.4286H50.1429V46.4286ZM46.7143 46.4286H47.7143V43H46.7143H45.7143V46.4286H46.7143ZM50.1429 46.4286V47.4286H53.5714V46.4286V45.4286H50.1429V46.4286ZM53.5714 46.4286H52.5714V49.8571H53.5714H54.5714V46.4286H53.5714ZM53.5714 49.8571V48.8571H50.1429V49.8571V50.8571H53.5714V49.8571ZM50.1429 49.8571H51.1429V46.4286H50.1429H49.1429V49.8571H50.1429ZM50.1429 49.8571V50.8571H53.5714V49.8571V48.8571H50.1429V49.8571ZM53.5714 49.8571H52.5714V53.2857H53.5714H54.5714V49.8571H53.5714ZM53.5714 53.2857V52.2857H50.1429V53.2857V54.2857H53.5714V53.2857ZM50.1429 53.2857H51.1429V49.8571H50.1429H49.1429V53.2857H50.1429ZM50.1429 56.7143V57.7143H53.5714V56.7143V55.7143H50.1429V56.7143ZM53.5714 56.7143H52.5714V60.1429H53.5714H54.5714V56.7143H53.5714ZM53.5714 60.1429V59.1429H50.1429V60.1429V61.1429H53.5714V60.1429ZM50.1429 60.1429H51.1429V56.7143H50.1429H49.1429V60.1429H50.1429ZM53.5714 56.7143V57.7143H57V56.7143V55.7143H53.5714V56.7143ZM57 56.7143H56V60.1429H57H58V56.7143H57ZM57 60.1429V59.1429H53.5714V60.1429V61.1429H57V60.1429ZM53.5714 60.1429H54.5714V56.7143H53.5714H52.5714V60.1429H53.5714ZM53.5714 60.1429V61.1429H57V60.1429V59.1429H53.5714V60.1429ZM57 60.1429H56V63.5714H57H58V60.1429H57ZM57 63.5714V62.5714H53.5714V63.5714V64.5714H57V63.5714ZM53.5714 63.5714H54.5714V60.1429H53.5714H52.5714V63.5714H53.5714ZM53.5714 63.5714V64.5714H57V63.5714V62.5714H53.5714V63.5714ZM57 63.5714H56V67H57H58V63.5714H57ZM57 67V66H53.5714V67V68H57V67ZM53.5714 67H54.5714V63.5714H53.5714H52.5714V67H53.5714ZM50.1429 63.5714V64.5714H53.5714V63.5714V62.5714H50.1429V63.5714ZM53.5714 63.5714H52.5714V67H53.5714H54.5714V63.5714H53.5714ZM53.5714 67V66H50.1429V67V68H53.5714V67ZM50.1429 67H51.1429V63.5714H50.1429H49.1429V67H50.1429ZM50.1429 60.1429V61.1429H53.5714V60.1429V59.1429H50.1429V60.1429ZM53.5714 60.1429H52.5714V63.5714H53.5714H54.5714V60.1429H53.5714ZM53.5714 63.5714V62.5714H50.1429V63.5714V64.5714H53.5714V63.5714ZM50.1429 63.5714H51.1429V60.1429H50.1429H49.1429V63.5714H50.1429ZM46.7143 56.7143V57.7143H50.1429V56.7143V55.7143H46.7143V56.7143ZM50.1429 56.7143H49.1429V60.1429H50.1429H51.1429V56.7143H50.1429ZM50.1429 60.1429V59.1429H46.7143V60.1429V61.1429H50.1429V60.1429ZM46.7143 60.1429H47.7143V56.7143H46.7143H45.7143V60.1429H46.7143ZM43.2857 56.7143V57.7143H46.7143V56.7143V55.7143H43.2857V56.7143ZM46.7143 56.7143H45.7143V60.1429H46.7143H47.7143V56.7143H46.7143ZM46.7143 60.1429V59.1429H43.2857V60.1429V61.1429H46.7143V60.1429ZM43.2857 60.1429H44.2857V56.7143H43.2857H42.2857V60.1429H43.2857ZM39.8571 56.7143V57.7143H43.2857V56.7143V55.7143H39.8571V56.7143ZM43.2857 56.7143H42.2857V60.1429H43.2857H44.2857V56.7143H43.2857ZM43.2857 60.1429V59.1429H39.8571V60.1429V61.1429H43.2857V60.1429ZM39.8571 60.1429H40.8571V56.7143H39.8571H38.8571V60.1429H39.8571ZM36.4286 56.7143V57.7143H39.8571V56.7143V55.7143H36.4286V56.7143ZM39.8571 56.7143H38.8571V60.1429H39.8571H40.8571V56.7143H39.8571ZM39.8571 60.1429V59.1429H36.4286V60.1429V61.1429H39.8571V60.1429ZM36.4286 60.1429H37.4286V56.7143H36.4286H35.4286V60.1429H36.4286ZM36.4286 60.1429V61.1429H39.8571V60.1429V59.1429H36.4286V60.1429ZM39.8571 60.1429H38.8571V63.5714H39.8571H40.8571V60.1429H39.8571ZM39.8571 63.5714V62.5714H36.4286V63.5714V64.5714H39.8571V63.5714ZM36.4286 63.5714H37.4286V60.1429H36.4286H35.4286V63.5714H36.4286ZM36.4286 63.5714V64.5714H39.8571V63.5714V62.5714H36.4286V63.5714ZM39.8571 63.5714H38.8571V67H39.8571H40.8571V63.5714H39.8571ZM39.8571 67V66H36.4286V67V68H39.8571V67ZM36.4286 67H37.4286V63.5714H36.4286H35.4286V67H36.4286ZM33 63.5714V64.5714H36.4286V63.5714V62.5714H33V63.5714ZM36.4286 63.5714H35.4286V67H36.4286H37.4286V63.5714H36.4286ZM36.4286 67V66H33V67V68H36.4286V67ZM33 67H34V63.5714H33H32V67H33ZM33 60.1429V61.1429H36.4286V60.1429V59.1429H33V60.1429ZM36.4286 60.1429H35.4286V63.5714H36.4286H37.4286V60.1429H36.4286ZM36.4286 63.5714V62.5714H33V63.5714V64.5714H36.4286V63.5714ZM33 63.5714H34V60.1429H33H32V63.5714H33ZM33 56.7143V57.7143H36.4286V56.7143V55.7143H33V56.7143ZM36.4286 56.7143H35.4286V60.1429H36.4286H37.4286V56.7143H36.4286ZM36.4286 60.1429V59.1429H33V60.1429V61.1429H36.4286V60.1429ZM33 60.1429H34V56.7143H33H32V60.1429H33ZM33 53.2857V54.2857H36.4286V53.2857V52.2857H33V53.2857ZM36.4286 53.2857H35.4286V56.7143H36.4286H37.4286V53.2857H36.4286ZM36.4286 56.7143V55.7143H33V56.7143V57.7143H36.4286V56.7143ZM33 56.7143H34V53.2857H33H32V56.7143H33ZM33 49.8571V50.8571H36.4286V49.8571V48.8571H33V49.8571ZM36.4286 49.8571H35.4286V53.2857H36.4286H37.4286V49.8571H36.4286ZM36.4286 53.2857V52.2857H33V53.2857V54.2857H36.4286V53.2857ZM33 53.2857H34V49.8571H33H32V53.2857H33ZM33 46.4286V47.4286H36.4286V46.4286V45.4286H33V46.4286ZM36.4286 46.4286H35.4286V49.8571H36.4286H37.4286V46.4286H36.4286ZM36.4286 49.8571V48.8571H33V49.8571V50.8571H36.4286V49.8571ZM33 49.8571H34V46.4286H33H32V49.8571H33ZM60.4375 32.7143V31.7143H59.4375V32.7143H60.4375ZM63.8661 32.7143H64.8661V31.7143H63.8661V32.7143ZM63.8661 36.1429V37.1429H64.8661V36.1429H63.8661ZM60.4375 36.1429H59.4375V37.1429H60.4375V36.1429ZM63.8661 32.7143V31.7143H62.8661V32.7143H63.8661ZM67.2946 32.7143H68.2946V31.7143H67.2946V32.7143ZM67.2946 36.1429V37.1429H68.2946V36.1429H67.2946ZM63.8661 36.1429H62.8661V37.1429H63.8661V36.1429ZM63.8661 36.1429V35.1429H62.8661V36.1429H63.8661ZM67.2946 36.1429H68.2946V35.1429H67.2946V36.1429ZM67.2946 39.5714V40.5714H68.2946V39.5714H67.2946ZM63.8661 39.5714H62.8661V40.5714H63.8661V39.5714ZM63.8661 39.5714V38.5714H62.8661V39.5714H63.8661ZM67.2946 39.5714H68.2946V38.5714H67.2946V39.5714ZM67.2946 43V44H68.2946V43H67.2946ZM63.8661 43H62.8661V44H63.8661V43ZM60.4375 39.5714V38.5714H59.4375V39.5714H60.4375ZM63.8661 39.5714H64.8661V38.5714H63.8661V39.5714ZM63.8661 43V44H64.8661V43H63.8661ZM60.4375 43H59.4375V44H60.4375V43ZM60.4375 36.1429V35.1429H59.4375V36.1429H60.4375ZM63.8661 36.1429H64.8661V35.1429H63.8661V36.1429ZM63.8661 39.5714V40.5714H64.8661V39.5714H63.8661ZM60.4375 39.5714H59.4375V40.5714H60.4375V39.5714ZM60.4375 43V42H59.4375V43H60.4375ZM63.8661 43H64.8661V42H63.8661V43ZM63.8661 46.4286V47.4286H64.8661V46.4286H63.8661ZM60.4375 46.4286H59.4375V47.4286H60.4375V46.4286ZM60.4375 46.4286V45.4286H59.4375V46.4286H60.4375ZM63.8661 46.4286H64.8661V45.4286H63.8661V46.4286ZM63.8661 49.8571V50.8571H64.8661V49.8571H63.8661ZM60.4375 49.8571H59.4375V50.8571H60.4375V49.8571ZM63.8661 46.4286V45.4286H62.8661V46.4286H63.8661ZM67.2946 46.4286H68.2946V45.4286H67.2946V46.4286ZM67.2946 49.8571V50.8571H68.2946V49.8571H67.2946ZM63.8661 49.8571H62.8661V50.8571H63.8661V49.8571ZM63.8661 43V42H62.8661V43H63.8661ZM67.2946 43H68.2946V42H67.2946V43ZM67.2946 46.4286V47.4286H68.2946V46.4286H67.2946ZM63.8661 46.4286H62.8661V47.4286H63.8661V46.4286ZM63.8661 49.8571V48.8571H62.8661V49.8571H63.8661ZM67.2946 49.8571H68.2946V48.8571H67.2946V49.8571ZM67.2946 53.2857V54.2857H68.2946V53.2857H67.2946ZM63.8661 53.2857H62.8661V54.2857H63.8661V53.2857ZM67.2946 49.8571V48.8571H66.2946V49.8571H67.2946ZM70.7232 49.8571H71.7232V48.8571H70.7232V49.8571ZM70.7232 53.2857V54.2857H71.7232V53.2857H70.7232ZM67.2946 53.2857H66.2946V54.2857H67.2946V53.2857ZM67.2946 46.4286V45.4286H66.2946V46.4286H67.2946ZM70.7232 46.4286H71.7232V45.4286H70.7232V46.4286ZM70.7232 49.8571V50.8571H71.7232V49.8571H70.7232ZM67.2946 49.8571H66.2946V50.8571H67.2946V49.8571ZM67.2946 53.2857V52.2857H66.2946V53.2857H67.2946ZM70.7232 53.2857H71.7232V52.2857H70.7232V53.2857ZM70.7232 56.7143V57.7143H71.7232V56.7143H70.7232ZM67.2946 56.7143H66.2946V57.7143H67.2946V56.7143ZM70.7232 53.2857V52.2857H69.7232V53.2857H70.7232ZM74.1518 53.2857H75.1518V52.2857H74.1518V53.2857ZM74.1518 56.7143V57.7143H75.1518V56.7143H74.1518ZM70.7232 56.7143H69.7232V57.7143H70.7232V56.7143ZM70.7232 49.8571V48.8571H69.7232V49.8571H70.7232ZM74.1518 49.8571H75.1518V48.8571H74.1518V49.8571ZM74.1518 53.2857V54.2857H75.1518V53.2857H74.1518ZM70.7232 53.2857H69.7232V54.2857H70.7232V53.2857ZM74.1518 49.8571V48.8571H73.1518V49.8571H74.1518ZM77.5804 49.8571H78.5804V48.8571H77.5804V49.8571ZM77.5804 53.2857V54.2857H78.5804V53.2857H77.5804ZM74.1518 53.2857H73.1518V54.2857H74.1518V53.2857ZM74.1518 53.2857V52.2857H73.1518V53.2857H74.1518ZM77.5804 53.2857H78.5804V52.2857H77.5804V53.2857ZM77.5804 56.7143V57.7143H78.5804V56.7143H77.5804ZM74.1518 56.7143H73.1518V57.7143H74.1518V56.7143ZM77.5804 53.2857V52.2857H76.5804V53.2857H77.5804ZM81.0089 53.2857H82.0089V52.2857H81.0089V53.2857ZM81.0089 56.7143V57.7143H82.0089V56.7143H81.0089ZM77.5804 56.7143H76.5804V57.7143H77.5804V56.7143ZM77.5804 49.8571V48.8571H76.5804V49.8571H77.5804ZM81.0089 49.8571H82.0089V48.8571H81.0089V49.8571ZM81.0089 53.2857V54.2857H82.0089V53.2857H81.0089ZM77.5804 53.2857H76.5804V54.2857H77.5804V53.2857ZM77.5804 46.4286V45.4286H76.5804V46.4286H77.5804ZM81.0089 46.4286H82.0089V45.4286H81.0089V46.4286ZM81.0089 49.8571V50.8571H82.0089V49.8571H81.0089ZM77.5804 49.8571H76.5804V50.8571H77.5804V49.8571ZM81.0089 46.4286V45.4286H80.0089V46.4286H81.0089ZM84.4375 46.4286H85.4375V45.4286H84.4375V46.4286ZM84.4375 49.8571V50.8571H85.4375V49.8571H84.4375ZM81.0089 49.8571H80.0089V50.8571H81.0089V49.8571ZM81.0089 49.8571V48.8571H80.0089V49.8571H81.0089ZM84.4375 49.8571H85.4375V48.8571H84.4375V49.8571ZM84.4375 53.2857V54.2857H85.4375V53.2857H84.4375ZM81.0089 53.2857H80.0089V54.2857H81.0089V53.2857ZM81.0089 43V42H80.0089V43H81.0089ZM84.4375 43H85.4375V42H84.4375V43ZM84.4375 46.4286V47.4286H85.4375V46.4286H84.4375ZM81.0089 46.4286H80.0089V47.4286H81.0089V46.4286ZM81.0089 39.5714V38.5714H80.0089V39.5714H81.0089ZM84.4375 39.5714H85.4375V38.5714H84.4375V39.5714ZM84.4375 43V44H85.4375V43H84.4375ZM81.0089 43H80.0089V44H81.0089V43ZM81.0089 36.1429V35.1429H80.0089V36.1429H81.0089ZM84.4375 36.1429H85.4375V35.1429H84.4375V36.1429ZM84.4375 39.5714V40.5714H85.4375V39.5714H84.4375ZM81.0089 39.5714H80.0089V40.5714H81.0089V39.5714ZM81.0089 32.7143V31.7143H80.0089V32.7143H81.0089ZM84.4375 32.7143H85.4375V31.7143H84.4375V32.7143ZM84.4375 36.1429V37.1429H85.4375V36.1429H84.4375ZM81.0089 36.1429H80.0089V37.1429H81.0089V36.1429ZM84.4375 32.7143V31.7143H83.4375V32.7143H84.4375ZM87.8661 32.7143H88.8661V31.7143H87.8661V32.7143ZM87.8661 36.1429V37.1429H88.8661V36.1429H87.8661ZM84.4375 36.1429H83.4375V37.1429H84.4375V36.1429ZM84.4375 36.1429V35.1429H83.4375V36.1429H84.4375ZM87.8661 36.1429H88.8661V35.1429H87.8661V36.1429ZM87.8661 39.5714V40.5714H88.8661V39.5714H87.8661ZM84.4375 39.5714H83.4375V40.5714H84.4375V39.5714ZM84.4375 39.5714V38.5714H83.4375V39.5714H84.4375ZM87.8661 39.5714H88.8661V38.5714H87.8661V39.5714ZM87.8661 43V44H88.8661V43H87.8661ZM84.4375 43H83.4375V44H84.4375V43ZM84.4375 43V42H83.4375V43H84.4375ZM87.8661 43H88.8661V42H87.8661V43ZM87.8661 46.4286V47.4286H88.8661V46.4286H87.8661ZM84.4375 46.4286H83.4375V47.4286H84.4375V46.4286ZM84.4375 46.4286V45.4286H83.4375V46.4286H84.4375ZM87.8661 46.4286H88.8661V45.4286H87.8661V46.4286ZM87.8661 49.8571V50.8571H88.8661V49.8571H87.8661ZM84.4375 49.8571H83.4375V50.8571H84.4375V49.8571ZM70.7232 56.7143V55.7143H69.7232V56.7143H70.7232ZM74.1518 56.7143H75.1518V55.7143H74.1518V56.7143ZM74.1518 60.1429V61.1429H75.1518V60.1429H74.1518ZM70.7232 60.1429H69.7232V61.1429H70.7232V60.1429ZM70.7232 60.1429V59.1429H69.7232V60.1429H70.7232ZM74.1518 60.1429H75.1518V59.1429H74.1518V60.1429ZM74.1518 63.5714V64.5714H75.1518V63.5714H74.1518ZM70.7232 63.5714H69.7232V64.5714H70.7232V63.5714ZM70.7232 63.5714V62.5714H69.7232V63.5714H70.7232ZM74.1518 63.5714H75.1518V62.5714H74.1518V63.5714ZM74.1518 67V68H75.1518V67H74.1518ZM70.7232 67H69.7232V68H70.7232V67ZM74.1518 63.5714V62.5714H73.1518V63.5714H74.1518ZM77.5804 63.5714H78.5804V62.5714H77.5804V63.5714ZM77.5804 67V68H78.5804V67H77.5804ZM74.1518 67H73.1518V68H74.1518V67ZM74.1518 60.1429V59.1429H73.1518V60.1429H74.1518ZM77.5804 60.1429H78.5804V59.1429H77.5804V60.1429ZM77.5804 63.5714V64.5714H78.5804V63.5714H77.5804ZM74.1518 63.5714H73.1518V64.5714H74.1518V63.5714ZM74.1518 56.7143V55.7143H73.1518V56.7143H74.1518ZM77.5804 56.7143H78.5804V55.7143H77.5804V56.7143ZM77.5804 60.1429V61.1429H78.5804V60.1429H77.5804ZM74.1518 60.1429H73.1518V61.1429H74.1518V60.1429ZM60.4375 32.7143V33.7143H63.8661V32.7143V31.7143H60.4375V32.7143ZM63.8661 32.7143H62.8661V36.1429H63.8661H64.8661V32.7143H63.8661ZM63.8661 36.1429V35.1429H60.4375V36.1429V37.1429H63.8661V36.1429ZM60.4375 36.1429H61.4375V32.7143H60.4375H59.4375V36.1429H60.4375ZM63.8661 32.7143V33.7143H67.2946V32.7143V31.7143H63.8661V32.7143ZM67.2946 32.7143H66.2946V36.1429H67.2946H68.2946V32.7143H67.2946ZM67.2946 36.1429V35.1429H63.8661V36.1429V37.1429H67.2946V36.1429ZM63.8661 36.1429H64.8661V32.7143H63.8661H62.8661V36.1429H63.8661ZM63.8661 36.1429V37.1429H67.2946V36.1429V35.1429H63.8661V36.1429ZM67.2946 36.1429H66.2946V39.5714H67.2946H68.2946V36.1429H67.2946ZM67.2946 39.5714V38.5714H63.8661V39.5714V40.5714H67.2946V39.5714ZM63.8661 39.5714H64.8661V36.1429H63.8661H62.8661V39.5714H63.8661ZM63.8661 39.5714V40.5714H67.2946V39.5714V38.5714H63.8661V39.5714ZM67.2946 39.5714H66.2946V43H67.2946H68.2946V39.5714H67.2946ZM67.2946 43V42H63.8661V43V44H67.2946V43ZM63.8661 43H64.8661V39.5714H63.8661H62.8661V43H63.8661ZM60.4375 39.5714V40.5714H63.8661V39.5714V38.5714H60.4375V39.5714ZM63.8661 39.5714H62.8661V43H63.8661H64.8661V39.5714H63.8661ZM63.8661 43V42H60.4375V43V44H63.8661V43ZM60.4375 43H61.4375V39.5714H60.4375H59.4375V43H60.4375ZM60.4375 36.1429V37.1429H63.8661V36.1429V35.1429H60.4375V36.1429ZM63.8661 36.1429H62.8661V39.5714H63.8661H64.8661V36.1429H63.8661ZM63.8661 39.5714V38.5714H60.4375V39.5714V40.5714H63.8661V39.5714ZM60.4375 39.5714H61.4375V36.1429H60.4375H59.4375V39.5714H60.4375ZM60.4375 43V44H63.8661V43V42H60.4375V43ZM63.8661 43H62.8661V46.4286H63.8661H64.8661V43H63.8661ZM63.8661 46.4286V45.4286H60.4375V46.4286V47.4286H63.8661V46.4286ZM60.4375 46.4286H61.4375V43H60.4375H59.4375V46.4286H60.4375ZM60.4375 46.4286V47.4286H63.8661V46.4286V45.4286H60.4375V46.4286ZM63.8661 46.4286H62.8661V49.8571H63.8661H64.8661V46.4286H63.8661ZM63.8661 49.8571V48.8571H60.4375V49.8571V50.8571H63.8661V49.8571ZM60.4375 49.8571H61.4375V46.4286H60.4375H59.4375V49.8571H60.4375ZM63.8661 46.4286V47.4286H67.2946V46.4286V45.4286H63.8661V46.4286ZM67.2946 46.4286H66.2946V49.8571H67.2946H68.2946V46.4286H67.2946ZM67.2946 49.8571V48.8571H63.8661V49.8571V50.8571H67.2946V49.8571ZM63.8661 49.8571H64.8661V46.4286H63.8661H62.8661V49.8571H63.8661ZM63.8661 43V44H67.2946V43V42H63.8661V43ZM67.2946 43H66.2946V46.4286H67.2946H68.2946V43H67.2946ZM67.2946 46.4286V45.4286H63.8661V46.4286V47.4286H67.2946V46.4286ZM63.8661 46.4286H64.8661V43H63.8661H62.8661V46.4286H63.8661ZM63.8661 49.8571V50.8571H67.2946V49.8571V48.8571H63.8661V49.8571ZM67.2946 49.8571H66.2946V53.2857H67.2946H68.2946V49.8571H67.2946ZM67.2946 53.2857V52.2857H63.8661V53.2857V54.2857H67.2946V53.2857ZM63.8661 53.2857H64.8661V49.8571H63.8661H62.8661V53.2857H63.8661ZM67.2946 49.8571V50.8571H70.7232V49.8571V48.8571H67.2946V49.8571ZM70.7232 49.8571H69.7232V53.2857H70.7232H71.7232V49.8571H70.7232ZM70.7232 53.2857V52.2857H67.2946V53.2857V54.2857H70.7232V53.2857ZM67.2946 53.2857H68.2946V49.8571H67.2946H66.2946V53.2857H67.2946ZM67.2946 46.4286V47.4286H70.7232V46.4286V45.4286H67.2946V46.4286ZM70.7232 46.4286H69.7232V49.8571H70.7232H71.7232V46.4286H70.7232ZM70.7232 49.8571V48.8571H67.2946V49.8571V50.8571H70.7232V49.8571ZM67.2946 49.8571H68.2946V46.4286H67.2946H66.2946V49.8571H67.2946ZM67.2946 53.2857V54.2857H70.7232V53.2857V52.2857H67.2946V53.2857ZM70.7232 53.2857H69.7232V56.7143H70.7232H71.7232V53.2857H70.7232ZM70.7232 56.7143V55.7143H67.2946V56.7143V57.7143H70.7232V56.7143ZM67.2946 56.7143H68.2946V53.2857H67.2946H66.2946V56.7143H67.2946ZM70.7232 53.2857V54.2857H74.1518V53.2857V52.2857H70.7232V53.2857ZM74.1518 53.2857H73.1518V56.7143H74.1518H75.1518V53.2857H74.1518ZM74.1518 56.7143V55.7143H70.7232V56.7143V57.7143H74.1518V56.7143ZM70.7232 56.7143H71.7232V53.2857H70.7232H69.7232V56.7143H70.7232ZM70.7232 49.8571V50.8571H74.1518V49.8571V48.8571H70.7232V49.8571ZM74.1518 49.8571H73.1518V53.2857H74.1518H75.1518V49.8571H74.1518ZM74.1518 53.2857V52.2857H70.7232V53.2857V54.2857H74.1518V53.2857ZM70.7232 53.2857H71.7232V49.8571H70.7232H69.7232V53.2857H70.7232ZM74.1518 49.8571V50.8571H77.5804V49.8571V48.8571H74.1518V49.8571ZM77.5804 49.8571H76.5804V53.2857H77.5804H78.5804V49.8571H77.5804ZM77.5804 53.2857V52.2857H74.1518V53.2857V54.2857H77.5804V53.2857ZM74.1518 53.2857H75.1518V49.8571H74.1518H73.1518V53.2857H74.1518ZM74.1518 53.2857V54.2857H77.5804V53.2857V52.2857H74.1518V53.2857ZM77.5804 53.2857H76.5804V56.7143H77.5804H78.5804V53.2857H77.5804ZM77.5804 56.7143V55.7143H74.1518V56.7143V57.7143H77.5804V56.7143ZM74.1518 56.7143H75.1518V53.2857H74.1518H73.1518V56.7143H74.1518ZM77.5804 53.2857V54.2857H81.0089V53.2857V52.2857H77.5804V53.2857ZM81.0089 53.2857H80.0089V56.7143H81.0089H82.0089V53.2857H81.0089ZM81.0089 56.7143V55.7143H77.5804V56.7143V57.7143H81.0089V56.7143ZM77.5804 56.7143H78.5804V53.2857H77.5804H76.5804V56.7143H77.5804ZM77.5804 49.8571V50.8571H81.0089V49.8571V48.8571H77.5804V49.8571ZM81.0089 49.8571H80.0089V53.2857H81.0089H82.0089V49.8571H81.0089ZM81.0089 53.2857V52.2857H77.5804V53.2857V54.2857H81.0089V53.2857ZM77.5804 53.2857H78.5804V49.8571H77.5804H76.5804V53.2857H77.5804ZM77.5804 46.4286V47.4286H81.0089V46.4286V45.4286H77.5804V46.4286ZM81.0089 46.4286H80.0089V49.8571H81.0089H82.0089V46.4286H81.0089ZM81.0089 49.8571V48.8571H77.5804V49.8571V50.8571H81.0089V49.8571ZM77.5804 49.8571H78.5804V46.4286H77.5804H76.5804V49.8571H77.5804ZM81.0089 46.4286V47.4286H84.4375V46.4286V45.4286H81.0089V46.4286ZM84.4375 46.4286H83.4375V49.8571H84.4375H85.4375V46.4286H84.4375ZM84.4375 49.8571V48.8571H81.0089V49.8571V50.8571H84.4375V49.8571ZM81.0089 49.8571H82.0089V46.4286H81.0089H80.0089V49.8571H81.0089ZM81.0089 49.8571V50.8571H84.4375V49.8571V48.8571H81.0089V49.8571ZM84.4375 49.8571H83.4375V53.2857H84.4375H85.4375V49.8571H84.4375ZM84.4375 53.2857V52.2857H81.0089V53.2857V54.2857H84.4375V53.2857ZM81.0089 53.2857H82.0089V49.8571H81.0089H80.0089V53.2857H81.0089ZM81.0089 43V44H84.4375V43V42H81.0089V43ZM84.4375 43H83.4375V46.4286H84.4375H85.4375V43H84.4375ZM84.4375 46.4286V45.4286H81.0089V46.4286V47.4286H84.4375V46.4286ZM81.0089 46.4286H82.0089V43H81.0089H80.0089V46.4286H81.0089ZM81.0089 39.5714V40.5714H84.4375V39.5714V38.5714H81.0089V39.5714ZM84.4375 39.5714H83.4375V43H84.4375H85.4375V39.5714H84.4375ZM84.4375 43V42H81.0089V43V44H84.4375V43ZM81.0089 43H82.0089V39.5714H81.0089H80.0089V43H81.0089ZM81.0089 36.1429V37.1429H84.4375V36.1429V35.1429H81.0089V36.1429ZM84.4375 36.1429H83.4375V39.5714H84.4375H85.4375V36.1429H84.4375ZM84.4375 39.5714V38.5714H81.0089V39.5714V40.5714H84.4375V39.5714ZM81.0089 39.5714H82.0089V36.1429H81.0089H80.0089V39.5714H81.0089ZM81.0089 32.7143V33.7143H84.4375V32.7143V31.7143H81.0089V32.7143ZM84.4375 32.7143H83.4375V36.1429H84.4375H85.4375V32.7143H84.4375ZM84.4375 36.1429V35.1429H81.0089V36.1429V37.1429H84.4375V36.1429ZM81.0089 36.1429H82.0089V32.7143H81.0089H80.0089V36.1429H81.0089ZM84.4375 32.7143V33.7143H87.8661V32.7143V31.7143H84.4375V32.7143ZM87.8661 32.7143H86.8661V36.1429H87.8661H88.8661V32.7143H87.8661ZM87.8661 36.1429V35.1429H84.4375V36.1429V37.1429H87.8661V36.1429ZM84.4375 36.1429H85.4375V32.7143H84.4375H83.4375V36.1429H84.4375ZM84.4375 36.1429V37.1429H87.8661V36.1429V35.1429H84.4375V36.1429ZM87.8661 36.1429H86.8661V39.5714H87.8661H88.8661V36.1429H87.8661ZM87.8661 39.5714V38.5714H84.4375V39.5714V40.5714H87.8661V39.5714ZM84.4375 39.5714H85.4375V36.1429H84.4375H83.4375V39.5714H84.4375ZM84.4375 39.5714V40.5714H87.8661V39.5714V38.5714H84.4375V39.5714ZM87.8661 39.5714H86.8661V43H87.8661H88.8661V39.5714H87.8661ZM87.8661 43V42H84.4375V43V44H87.8661V43ZM84.4375 43H85.4375V39.5714H84.4375H83.4375V43H84.4375ZM84.4375 43V44H87.8661V43V42H84.4375V43ZM87.8661 43H86.8661V46.4286H87.8661H88.8661V43H87.8661ZM87.8661 46.4286V45.4286H84.4375V46.4286V47.4286H87.8661V46.4286ZM84.4375 46.4286H85.4375V43H84.4375H83.4375V46.4286H84.4375ZM84.4375 46.4286V47.4286H87.8661V46.4286V45.4286H84.4375V46.4286ZM87.8661 46.4286H86.8661V49.8571H87.8661H88.8661V46.4286H87.8661ZM87.8661 49.8571V48.8571H84.4375V49.8571V50.8571H87.8661V49.8571ZM84.4375 49.8571H85.4375V46.4286H84.4375H83.4375V49.8571H84.4375ZM70.7232 56.7143V57.7143H74.1518V56.7143V55.7143H70.7232V56.7143ZM74.1518 56.7143H73.1518V60.1429H74.1518H75.1518V56.7143H74.1518ZM74.1518 60.1429V59.1429H70.7232V60.1429V61.1429H74.1518V60.1429ZM70.7232 60.1429H71.7232V56.7143H70.7232H69.7232V60.1429H70.7232ZM70.7232 60.1429V61.1429H74.1518V60.1429V59.1429H70.7232V60.1429ZM74.1518 60.1429H73.1518V63.5714H74.1518H75.1518V60.1429H74.1518ZM74.1518 63.5714V62.5714H70.7232V63.5714V64.5714H74.1518V63.5714ZM70.7232 63.5714H71.7232V60.1429H70.7232H69.7232V63.5714H70.7232ZM70.7232 63.5714V64.5714H74.1518V63.5714V62.5714H70.7232V63.5714ZM74.1518 63.5714H73.1518V67H74.1518H75.1518V63.5714H74.1518ZM74.1518 67V66H70.7232V67V68H74.1518V67ZM70.7232 67H71.7232V63.5714H70.7232H69.7232V67H70.7232ZM74.1518 63.5714V64.5714H77.5804V63.5714V62.5714H74.1518V63.5714ZM77.5804 63.5714H76.5804V67H77.5804H78.5804V63.5714H77.5804ZM77.5804 67V66H74.1518V67V68H77.5804V67ZM74.1518 67H75.1518V63.5714H74.1518H73.1518V67H74.1518ZM74.1518 60.1429V61.1429H77.5804V60.1429V59.1429H74.1518V60.1429ZM77.5804 60.1429H76.5804V63.5714H77.5804H78.5804V60.1429H77.5804ZM77.5804 63.5714V62.5714H74.1518V63.5714V64.5714H77.5804V63.5714ZM74.1518 63.5714H75.1518V60.1429H74.1518H73.1518V63.5714H74.1518ZM74.1518 56.7143V57.7143H77.5804V56.7143V55.7143H74.1518V56.7143ZM77.5804 56.7143H76.5804V60.1429H77.5804H78.5804V56.7143H77.5804ZM77.5804 60.1429V59.1429H74.1518V60.1429V61.1429H77.5804V60.1429ZM74.1518 60.1429H75.1518V56.7143H74.1518H73.1518V60.1429H74.1518Z" fill="black" mask="url(#path-1-outside-1_33_58)"/>
</svg>
